<?xml version="1.0" standalone="no"?>
<!DOCTYPE svg PUBLIC "-//W3C//DTD SVG 20010904//EN"
 "http://www.w3.org/TR/2001/REC-SVG-20010904/DTD/svg10.dtd">
<svg version="1.0" xmlns="http://www.w3.org/2000/svg"
 width="1940.000000pt" height="186.000000pt" viewBox="0 0 1940.000000 186.000000"
 preserveAspectRatio="xMidYMid meet">

<g transform="translate(0.000000,186.000000) scale(0.100000,-0.100000)"
fill="#000000" stroke="none">
<path d="M2540 1687 c-71 -25 -101 -117 -60 -184 83 -137 294 -24 225 120 -29
62 -97 88 -165 64z"/>
<path d="M2850 1687 c-71 -25 -101 -117 -60 -184 47 -78 167 -82 216 -8 21 32
24 103 6 136 -30 54 -99 78 -162 56z"/>
<path d="M16240 1678 c-78 -42 -122 -135 -102 -213 6 -22 14 -48 17 -57 7 -17
-17 -18 -414 -18 -463 0 -465 0 -496 -60 -20 -39 -19 -79 5 -117 35 -59 27
-58 500 -63 l435 -5 -3 -60 c-3 -80 -30 -257 -49 -325 -18 -65 -58 -123 -110
-159 -37 -25 -42 -26 -238 -31 -130 -3 -207 -9 -221 -17 -12 -7 -29 -29 -39
-49 -23 -49 -14 -99 25 -139 l30 -30 228 0 c226 0 227 0 285 27 170 80 267
244 306 518 6 41 18 125 27 185 9 61 18 145 20 188 3 72 6 81 38 119 77 89 57
231 -42 299 -52 35 -143 38 -202 7z m159 -99 c50 -47 50 -111 -1 -154 -44 -37
-91 -34 -134 9 -38 38 -43 70 -19 116 19 38 41 49 91 50 27 0 47 -7 63 -21z"/>
<path d="M17358 1433 c-10 -2 -18 -9 -18 -14 0 -6 10 -5 23 2 37 20 36 23 -5
12z"/>
<path d="M18318 1433 c-10 -2 -18 -9 -18 -14 0 -6 10 -5 23 2 37 20 36 23 -5
12z"/>
<path d="M18382 1433 c11 -3 15 -10 11 -21 -6 -14 -5 -15 9 -2 17 16 6 31 -22
29 -11 -1 -11 -2 2 -6z"/>
<path d="M17310 1420 c-9 -6 -10 -10 -3 -10 6 0 15 5 18 10 8 12 4 12 -15 0z"/>
<path d="M608 1402 c3 -10 1 -13 -6 -8 -7 4 -12 2 -12 -3 0 -6 5 -11 11 -11 5
0 7 -5 3 -12 -4 -6 -3 -8 4 -4 6 3 13 -3 17 -14 6 -17 9 -19 22 -9 12 10 16
10 23 0 5 -10 9 -10 15 -1 4 7 -1 13 -14 17 -12 3 -21 12 -21 19 0 8 -5 14
-11 14 -5 0 -7 -4 -4 -10 3 -5 2 -10 -4 -10 -5 0 -13 5 -16 10 -3 6 -1 10 4
10 6 0 11 6 11 13 0 8 -6 14 -14 14 -8 0 -12 -6 -8 -15z"/>
<path d="M2720 1413 c-57 -18 -90 -56 -90 -103 0 -19 -5 -20 -182 -20 -213 -1
-253 -7 -290 -50 -32 -35 -36 -76 -12 -121 26 -52 60 -59 284 -59 l200 0 0
-65 0 -65 -72 0 c-108 -1 -202 -15 -251 -39 -211 -102 -253 -368 -82 -519 74
-65 139 -86 270 -86 134 -1 183 13 241 66 58 53 94 131 119 253 l20 100 62 5
c82 7 113 34 113 100 0 26 -7 55 -16 69 -21 30 -72 51 -124 51 l-40 0 0 65 0
65 45 0 c85 0 135 44 135 116 0 63 -41 101 -120 110 -54 6 -60 9 -60 30 0 33
-46 82 -88 94 -40 11 -40 11 -62 3z m-96 -711 c9 -15 -20 -119 -43 -151 -36
-50 -132 -62 -176 -21 -67 63 -47 143 45 173 26 9 169 7 174 -1z"/>
<path d="M17355 1399 c-4 -6 -5 -12 -2 -15 2 -3 7 2 10 11 7 17 1 20 -8 4z"/>
<path d="M17401 1394 c0 -11 3 -14 6 -6 3 7 2 16 -1 19 -3 4 -6 -2 -5 -13z"/>
<path d="M18315 1399 c-4 -6 -5 -12 -2 -15 2 -3 7 2 10 11 7 17 1 20 -8 4z"/>
<path d="M18361 1394 c0 -11 3 -14 6 -6 3 7 2 16 -1 19 -3 4 -6 -2 -5 -13z"/>
<path d="M1834 1386 c-17 -8 -41 -26 -53 -42 l-22 -28 3 -391 4 -390 27 -81
c15 -45 36 -92 47 -106 45 -58 126 -61 179 -6 39 40 41 87 9 173 -22 57 -23
77 -28 430 -4 331 -7 374 -22 398 -31 46 -93 65 -144 43z"/>
<path d="M17380 1385 c0 -7 -8 -19 -17 -25 -15 -9 -15 -11 -2 -7 9 3 22 0 28
-6 8 -8 11 -8 11 1 0 7 -4 12 -9 12 -5 0 -7 9 -4 20 3 11 3 20 -1 20 -3 0 -6
-7 -6 -15z"/>
<path d="M18340 1385 c0 -7 -8 -19 -17 -25 -15 -9 -15 -11 -2 -7 9 3 22 0 28
-6 8 -8 11 -8 11 1 0 7 -4 12 -9 12 -5 0 -7 9 -4 20 3 11 3 20 -1 20 -3 0 -6
-7 -6 -15z"/>
<path d="M18436 1389 c4 -7 0 -9 -12 -5 -22 6 -59 -18 -50 -33 4 -5 -2 -14
-11 -20 -10 -5 -15 -12 -12 -16 9 -8 40 25 34 35 -3 5 -1 11 5 15 5 3 10 1 10
-5 0 -6 4 -9 9 -6 5 4 11 3 14 -1 2 -5 2 -2 0 6 -2 8 2 11 12 7 9 -3 14 -2 10
3 -3 5 0 11 7 13 7 3 5 7 -6 11 -11 4 -15 3 -10 -4z"/>
<path d="M17274 1381 c4 -5 1 -11 -5 -13 -5 -2 -7 -11 -3 -21 5 -14 9 -15 21
-5 11 9 16 9 23 -1 5 -10 9 -10 15 -1 4 7 -1 13 -14 17 -12 3 -21 12 -21 19 0
8 -5 14 -11 14 -5 0 -8 -4 -5 -9z"/>
<path d="M17426 1375 c-10 -7 -15 -18 -12 -24 4 -5 -2 -14 -11 -20 -10 -5 -15
-12 -12 -16 9 -8 40 25 34 35 -3 5 -1 11 5 15 5 3 10 1 10 -5 0 -6 4 -9 9 -6
5 4 11 3 14 -1 2 -5 2 -2 0 6 -2 9 3 11 14 7 15 -5 15 -4 -1 9 -24 18 -26 18
-50 0z"/>
<path d="M18233 1375 c-7 -8 -10 -21 -7 -30 5 -12 9 -13 21 -3 11 9 16 9 23
-1 5 -10 9 -10 15 -1 4 7 -1 13 -13 17 -12 3 -22 11 -24 18 -2 11 -5 10 -15 0z"/>
<path d="M580 1350 c0 -7 -3 -10 -7 -7 -3 4 -12 -1 -18 -10 -18 -24 3 -46 24
-26 11 12 15 12 22 2 6 -10 10 -9 15 4 4 10 1 24 -5 30 -9 9 -11 8 -6 -3 4
-11 -1 -16 -16 -17 -17 -2 -18 1 -8 13 6 8 9 17 5 21 -3 3 -6 0 -6 -7z"/>
<path d="M17202 1334 c-17 -12 -19 -18 -10 -28 10 -11 15 -10 27 1 11 12 15
12 22 2 6 -10 10 -9 15 4 4 10 1 24 -5 30 -9 9 -11 8 -6 -3 4 -11 -1 -16 -16
-17 -17 -2 -18 1 -9 13 16 18 10 18 -18 -2z"/>
<path d="M18205 1339 c5 -12 0 -16 -19 -15 -13 0 -25 -2 -25 -6 -3 -25 1 -28
15 -13 14 13 19 14 25 4 6 -10 10 -9 15 4 4 10 1 24 -5 30 -9 9 -11 8 -6 -4z"/>
<path d="M17443 1325 c0 -7 8 -10 19 -7 10 2 18 6 18 7 0 1 -8 5 -18 7 -11 3
-19 0 -19 -7z"/>
<path d="M18403 1325 c0 -7 8 -10 19 -7 10 2 18 6 18 7 0 1 -8 5 -18 7 -11 3
-19 0 -19 -7z"/>
<path d="M498 1323 c7 -3 16 -2 19 1 4 3 -2 6 -13 5 -11 0 -14 -3 -6 -6z"/>
<path d="M695 1320 c-4 -6 -11 -7 -17 -4 -6 4 -8 2 -4 -4 3 -6 2 -13 -3 -16
-11 -7 -2 -46 10 -46 5 0 9 -8 10 -17 0 -10 3 -13 5 -6 3 6 -2 23 -12 37 -15
24 -15 26 0 26 10 0 15 4 11 9 -3 6 3 14 12 20 10 6 13 11 6 11 -6 0 -15 -5
-18 -10z"/>
<path d="M17335 1320 c-4 -6 -11 -7 -17 -4 -6 4 -8 2 -4 -4 3 -6 2 -13 -3 -16
-11 -7 -2 -46 10 -46 5 0 9 -8 10 -17 0 -10 3 -13 5 -6 3 6 -2 23 -12 37 -15
24 -15 26 0 26 10 0 15 4 11 9 -3 6 3 14 12 20 10 6 13 11 6 11 -6 0 -15 -5
-18 -10z"/>
<path d="M18295 1320 c-4 -6 -11 -7 -17 -4 -6 4 -8 2 -4 -4 3 -6 2 -13 -3 -16
-11 -7 -2 -46 10 -46 5 0 9 -8 10 -17 0 -10 3 -13 5 -6 3 6 -2 23 -12 37 -15
24 -15 26 0 26 10 0 15 4 11 9 -3 6 3 14 12 20 10 6 13 11 6 11 -6 0 -15 -5
-18 -10z"/>
<path d="M18465 1320 c-3 -5 -1 -10 4 -10 6 0 11 5 11 10 0 6 -2 10 -4 10 -3
0 -8 -4 -11 -10z"/>
<path d="M716 1291 c5 -20 4 -23 -12 -17 -10 4 -15 3 -10 -1 12 -13 53 -10 53
4 0 6 -4 10 -8 7 -4 -2 -13 4 -19 13 -9 15 -10 14 -4 -6z"/>
<path d="M17355 1291 c6 -20 5 -23 -11 -17 -10 4 -15 3 -10 -1 15 -16 52 -9
53 9 1 10 -2 20 -8 23 -5 3 -6 -2 -3 -12 5 -16 3 -15 -11 2 -17 20 -17 20 -10
-4z"/>
<path d="M17405 1300 c-3 -6 1 -7 9 -4 18 7 21 14 7 14 -6 0 -13 -4 -16 -10z"/>
<path d="M18315 1291 c6 -20 5 -23 -11 -17 -10 4 -15 3 -10 -1 15 -16 52 -9
53 9 1 10 -2 20 -8 23 -5 3 -6 -2 -3 -12 5 -16 3 -15 -11 2 -17 20 -17 20 -10
-4z"/>
<path d="M18365 1300 c-3 -6 1 -7 9 -4 18 7 21 14 7 14 -6 0 -13 -4 -16 -10z"/>
<path d="M470 1290 c-13 -9 -13 -10 0 -10 8 0 22 5 30 10 13 9 13 10 0 10 -8
0 -22 -5 -30 -10z"/>
<path d="M590 1283 c9 -20 13 -21 30 -11 10 7 17 14 14 17 -2 3 -10 -1 -16 -7
-8 -8 -15 -7 -25 6 -13 15 -13 15 -3 -5z"/>
<path d="M17230 1283 c9 -20 13 -21 30 -11 10 7 17 14 14 17 -2 3 -10 -1 -16
-7 -8 -8 -15 -7 -25 6 -13 15 -13 15 -3 -5z"/>
<path d="M17430 1290 c-13 -9 -13 -10 0 -10 8 0 22 5 30 10 13 9 13 10 0 10
-8 0 -22 -5 -30 -10z"/>
<path d="M18190 1283 c9 -20 13 -21 30 -11 10 7 17 14 14 17 -2 3 -10 -1 -16
-7 -8 -8 -15 -7 -25 6 -13 15 -13 15 -3 -5z"/>
<path d="M18390 1290 c-13 -9 -13 -10 0 -10 8 0 22 5 30 10 13 9 13 10 0 10
-8 0 -22 -5 -30 -10z"/>
<path d="M289 1273 c-13 -17 -13 -17 6 -3 11 8 22 16 24 17 2 2 0 3 -6 3 -6 0
-17 -8 -24 -17z"/>
<path d="M347 1273 c3 -13 9 -23 13 -23 5 0 11 -8 13 -17 3 -13 5 -14 6 -3 0
8 -8 26 -19 40 -19 24 -19 24 -13 3z"/>
<path d="M400 1277 c0 -5 -8 -6 -17 -3 -10 4 -14 3 -9 -1 12 -12 53 -10 53 2
0 7 -6 12 -14 12 -7 0 -13 -5 -13 -10z"/>
<path d="M520 1280 c0 -7 -3 -10 -7 -7 -3 4 -13 -2 -20 -13 -8 -11 -19 -18
-24 -15 -15 10 -10 -2 8 -16 9 -8 14 -9 10 -2 -4 6 5 20 20 31 16 11 25 24 20
28 -4 4 -7 1 -7 -6z"/>
<path d="M788 1283 c7 -3 16 -2 19 1 4 3 -2 6 -13 5 -11 0 -14 -3 -6 -6z"/>
<path d="M840 1280 c0 -7 -3 -10 -7 -7 -3 4 -13 -2 -20 -13 -8 -11 -19 -18
-24 -15 -15 10 -10 -2 8 -16 9 -8 14 -9 10 -2 -4 6 5 20 20 31 16 11 25 24 20
28 -4 4 -7 1 -7 -6z"/>
<path d="M910 1283 c0 -19 14 -22 35 -7 10 8 14 14 8 14 -7 0 -15 -5 -19 -11
-4 -8 -9 -7 -15 2 -6 10 -9 10 -9 2z"/>
<path d="M987 1273 c3 -13 9 -23 13 -23 5 0 11 -8 13 -17 3 -13 5 -14 6 -3 0
8 -8 26 -19 40 -19 24 -19 24 -13 3z"/>
<path d="M1040 1277 c0 -5 -8 -6 -17 -3 -10 4 -14 3 -9 -1 12 -12 53 -10 53 2
0 7 -6 12 -14 12 -7 0 -13 -5 -13 -10z"/>
<path d="M1108 1283 c7 -3 16 -2 19 1 4 3 -2 6 -13 5 -11 0 -14 -3 -6 -6z"/>
<path d="M1160 1280 c0 -7 -3 -10 -7 -7 -3 4 -13 -2 -20 -13 -8 -11 -19 -18
-24 -15 -15 10 -10 -2 8 -16 9 -8 14 -9 10 -2 -4 6 5 20 20 31 16 11 25 24 20
28 -4 4 -7 1 -7 -6z"/>
<path d="M1230 1283 c0 -19 14 -22 35 -7 10 8 14 14 8 14 -7 0 -15 -5 -19 -11
-4 -8 -9 -7 -15 2 -6 10 -9 10 -9 2z"/>
<path d="M1307 1273 c3 -13 9 -23 13 -23 5 0 11 -8 13 -17 3 -13 5 -14 6 -3 0
8 -8 26 -19 40 -19 24 -19 24 -13 3z"/>
<path d="M1360 1277 c0 -5 -8 -6 -17 -3 -10 4 -14 3 -9 -1 12 -12 53 -10 53 2
0 7 -6 12 -14 12 -7 0 -13 -5 -13 -10z"/>
<path d="M17160 1280 c0 -7 -3 -10 -7 -7 -3 4 -13 -2 -20 -13 -8 -11 -19 -18
-24 -15 -15 10 -10 -2 8 -16 9 -8 14 -9 10 -2 -4 6 5 20 20 31 16 11 25 24 20
28 -4 4 -7 1 -7 -6z"/>
<path d="M17480 1280 c0 -7 -3 -10 -7 -7 -3 4 -13 -2 -20 -13 -8 -11 -19 -18
-24 -15 -15 10 -10 -2 8 -16 9 -8 14 -9 10 -2 -4 6 5 20 20 31 16 11 25 24 20
28 -4 4 -7 1 -7 -6z"/>
<path d="M18120 1280 c0 -7 -3 -10 -7 -7 -3 4 -13 -2 -20 -13 -8 -11 -19 -18
-24 -15 -15 10 -10 -2 8 -16 9 -8 14 -9 10 -2 -4 6 5 20 20 31 16 11 25 24 20
28 -4 4 -7 1 -7 -6z"/>
<path d="M18440 1280 c0 -7 -3 -10 -7 -7 -3 4 -13 -2 -20 -13 -8 -11 -19 -18
-24 -15 -15 10 -10 -2 8 -16 9 -8 14 -9 10 -2 -4 6 5 20 20 31 16 11 25 24 20
28 -4 4 -7 1 -7 -6z"/>
<path d="M570 1269 c0 -5 -5 -7 -12 -3 -7 5 -8 3 -3 -6 6 -10 4 -12 -8 -7 -9
3 -19 1 -23 -6 -4 -7 -4 -9 1 -5 12 11 45 -11 45 -30 0 -14 2 -15 10 -2 6 10
5 17 -6 23 -8 5 -12 13 -9 18 4 5 11 7 16 4 5 -3 6 1 3 9 -7 18 -14 21 -14 5z"/>
<path d="M890 1269 c0 -5 -5 -7 -12 -3 -7 5 -8 3 -3 -6 6 -10 4 -12 -8 -7 -9
3 -19 1 -23 -6 -4 -7 -4 -9 1 -5 12 11 45 -11 45 -30 0 -14 2 -15 10 -2 6 10
5 17 -6 23 -8 5 -12 13 -9 18 4 5 11 7 16 4 5 -3 6 1 3 9 -7 18 -14 21 -14 5z"/>
<path d="M1210 1269 c0 -5 -5 -7 -12 -3 -7 5 -8 3 -3 -6 6 -10 4 -12 -8 -7 -9
3 -19 1 -23 -6 -4 -7 -4 -9 1 -5 12 11 45 -11 45 -30 0 -14 2 -15 10 -2 6 10
5 17 -6 23 -8 5 -12 13 -9 18 4 5 11 7 16 4 5 -3 6 1 3 9 -7 18 -14 21 -14 5z"/>
<path d="M17210 1269 c0 -5 -5 -7 -12 -3 -7 5 -8 3 -3 -6 6 -10 4 -12 -8 -7
-9 3 -19 1 -23 -6 -4 -7 -4 -9 1 -5 12 11 45 -11 45 -30 0 -14 2 -15 10 -2 6
10 5 17 -6 23 -8 5 -12 13 -9 18 4 5 11 7 16 4 5 -3 6 1 3 9 -7 18 -14 21 -14
5z"/>
<path d="M18170 1269 c0 -5 -5 -7 -12 -3 -7 5 -8 3 -3 -6 6 -10 4 -12 -8 -7
-9 3 -19 1 -23 -6 -4 -7 -4 -9 1 -5 12 11 45 -11 45 -30 0 -14 2 -15 10 -2 6
10 5 17 -6 23 -8 5 -12 13 -9 18 4 5 11 7 16 4 5 -3 6 1 3 9 -7 18 -14 21 -14
5z"/>
<path d="M331 1261 c0 -7 -7 -11 -14 -8 -8 3 -14 -3 -14 -14 -1 -10 3 -19 8
-19 6 0 7 5 4 10 -10 16 11 12 25 -5 10 -12 10 -15 -4 -15 -9 0 -16 -5 -16
-11 0 -5 5 -7 11 -3 6 3 15 0 20 -7 5 -8 9 -9 9 -3 0 6 11 10 25 9 14 -2 23 1
19 7 -3 5 -12 7 -19 4 -16 -6 -38 17 -27 29 4 5 2 5 -5 1 -7 -4 -13 2 -16 16
-2 13 -5 17 -6 9z"/>
<path d="M651 1261 c0 -7 -7 -11 -14 -8 -8 3 -14 -3 -14 -14 -1 -10 3 -19 8
-19 6 0 7 5 4 10 -10 16 11 12 25 -5 10 -12 10 -15 -4 -15 -9 0 -16 -5 -16
-11 0 -5 5 -7 11 -3 6 3 15 0 20 -7 5 -8 9 -9 9 -3 0 6 11 10 25 9 14 -2 23 1
19 7 -3 5 -12 7 -19 4 -16 -6 -38 17 -27 29 4 5 2 5 -5 1 -7 -4 -13 2 -16 16
-2 13 -5 17 -6 9z"/>
<path d="M971 1261 c0 -7 -7 -11 -14 -8 -8 3 -14 -3 -14 -14 -1 -10 3 -19 8
-19 6 0 7 5 4 10 -10 16 11 12 25 -5 10 -12 10 -15 -4 -15 -9 0 -16 -5 -16
-11 0 -5 5 -7 11 -3 6 3 15 0 20 -7 5 -8 9 -9 9 -3 0 6 11 10 25 9 14 -2 23 1
19 7 -3 5 -12 7 -19 4 -16 -6 -38 17 -27 29 4 5 2 5 -5 1 -7 -4 -13 2 -16 16
-2 13 -5 17 -6 9z"/>
<path d="M1291 1261 c0 -7 -7 -11 -14 -8 -8 3 -14 -3 -14 -14 -1 -10 3 -19 8
-19 6 0 7 5 4 10 -10 16 11 12 25 -5 10 -12 10 -15 -4 -15 -9 0 -16 -5 -16
-11 0 -5 5 -7 11 -3 6 3 15 0 20 -7 5 -8 9 -9 9 -3 0 6 11 10 25 9 14 -2 23 1
19 7 -3 5 -12 7 -19 4 -16 -6 -38 17 -27 29 4 5 2 5 -5 1 -7 -4 -13 2 -16 16
-2 13 -5 17 -6 9z"/>
<path d="M17291 1261 c0 -7 -7 -11 -14 -8 -8 3 -14 -3 -14 -14 -1 -10 3 -19 8
-19 6 0 7 5 4 10 -10 16 11 12 25 -5 10 -12 10 -15 -4 -15 -9 0 -16 -5 -16
-11 0 -5 5 -7 11 -3 6 3 15 0 20 -7 5 -8 9 -9 9 -3 0 6 11 10 25 9 14 -2 23 1
19 7 -3 5 -12 7 -19 4 -16 -6 -38 17 -27 29 4 5 2 5 -5 1 -7 -4 -13 2 -16 16
-2 13 -5 17 -6 9z"/>
<path d="M18251 1261 c0 -7 -7 -11 -14 -8 -8 3 -14 -3 -14 -14 -1 -10 3 -19 8
-19 6 0 7 5 4 10 -10 16 11 12 25 -5 10 -12 10 -15 -4 -15 -9 0 -16 -5 -16
-11 0 -5 5 -7 11 -3 6 3 15 0 20 -7 5 -8 9 -9 9 -3 0 6 11 10 25 9 14 -2 23 1
19 7 -3 5 -12 7 -19 4 -16 -6 -38 17 -27 29 4 5 2 5 -5 1 -7 -4 -13 2 -16 16
-2 13 -5 17 -6 9z"/>
<path d="M1445 1250 c-4 -6 -11 -8 -16 -5 -16 10 -10 -2 9 -16 9 -7 14 -9 10
-5 -4 5 -3 15 3 23 6 7 9 13 6 13 -3 0 -9 -5 -12 -10z"/>
<path d="M18446 1252 c-3 -4 4 -9 15 -9 23 -2 25 3 4 10 -8 4 -16 3 -19 -1z"/>
<path d="M423 1244 c4 -4 2 -13 -4 -20 -6 -8 -7 -14 0 -18 6 -4 8 -13 5 -21
-4 -8 -10 -12 -15 -9 -13 8 -80 -27 -73 -38 4 -6 9 -6 14 2 4 7 10 8 12 4 3
-5 3 -3 1 5 -2 8 2 11 12 7 8 -3 15 -1 15 3 0 5 9 7 20 4 12 -3 20 0 20 6 0 7
5 9 12 5 7 -4 8 -3 4 4 -4 7 -3 12 2 12 6 0 13 7 16 16 5 14 4 15 -9 4 -19
-16 -32 -5 -16 14 9 11 8 15 -6 20 -10 4 -14 4 -10 0z"/>
<path d="M743 1244 c4 -4 2 -13 -4 -20 -6 -8 -7 -14 0 -18 6 -4 8 -13 5 -21
-4 -8 -10 -12 -15 -9 -13 8 -80 -27 -73 -38 4 -6 9 -6 14 2 4 7 10 8 12 4 3
-5 3 -3 1 5 -2 8 2 11 12 7 8 -3 15 -1 15 3 0 5 9 7 20 4 12 -3 20 0 20 6 0 7
5 9 12 5 7 -4 8 -3 4 4 -4 7 -3 12 2 12 6 0 13 7 16 16 5 14 4 15 -9 4 -19
-16 -32 -5 -16 14 9 11 8 15 -6 20 -10 4 -14 4 -10 0z"/>
<path d="M1063 1244 c4 -4 2 -13 -4 -20 -6 -8 -7 -14 0 -18 6 -4 8 -13 5 -21
-4 -8 -10 -12 -15 -9 -13 8 -80 -27 -73 -38 4 -6 9 -6 14 2 4 7 10 8 12 4 3
-5 3 -3 1 5 -2 8 2 11 12 7 8 -3 15 -1 15 3 0 5 9 7 20 4 12 -3 20 0 20 6 0 7
5 9 12 5 7 -4 8 -3 4 4 -4 7 -3 12 2 12 6 0 13 7 16 16 5 14 4 15 -9 4 -19
-16 -32 -5 -16 14 9 11 8 15 -6 20 -10 4 -14 4 -10 0z"/>
<path d="M1383 1244 c4 -4 2 -13 -4 -20 -6 -8 -7 -14 0 -18 6 -4 8 -13 5 -21
-4 -8 -10 -12 -15 -9 -13 8 -80 -27 -73 -38 4 -6 9 -6 14 2 4 7 10 8 12 4 3
-5 3 -3 1 5 -2 8 2 11 12 7 8 -3 15 -1 15 3 0 5 9 7 20 4 12 -3 20 0 20 6 0 7
5 9 12 5 7 -4 8 -3 4 4 -4 7 -3 12 2 12 6 0 13 7 16 16 5 14 4 15 -9 4 -19
-16 -32 -5 -16 14 9 11 8 15 -6 20 -10 4 -14 4 -10 0z"/>
<path d="M17383 1244 c4 -4 2 -13 -4 -20 -6 -8 -7 -14 0 -18 6 -4 8 -13 5 -21
-4 -8 -10 -12 -15 -9 -13 8 -80 -27 -73 -38 4 -6 9 -6 14 2 4 7 10 8 12 4 3
-5 3 -3 1 5 -2 8 2 11 12 7 8 -3 15 -1 15 3 0 5 9 7 20 4 12 -3 20 0 20 6 0 7
5 9 12 5 7 -4 8 -3 4 4 -4 7 -3 12 2 12 6 0 13 7 16 16 5 14 4 15 -9 4 -19
-16 -32 -5 -16 14 9 11 8 15 -6 20 -10 4 -14 4 -10 0z"/>
<path d="M18343 1244 c4 -4 2 -13 -4 -20 -6 -8 -7 -14 0 -18 6 -4 8 -13 5 -21
-4 -8 -10 -12 -15 -9 -13 8 -80 -27 -73 -38 4 -6 9 -6 14 2 4 7 10 8 12 4 3
-5 3 -3 1 5 -2 8 2 11 12 7 8 -3 15 -1 15 3 0 5 9 7 20 4 12 -3 20 0 20 6 0 7
5 9 12 5 7 -4 8 -3 4 4 -4 7 -3 12 2 12 6 0 13 7 16 16 5 14 4 15 -9 4 -19
-16 -32 -5 -16 14 9 11 8 15 -6 20 -10 4 -14 4 -10 0z"/>
<path d="M247 1219 c6 -23 9 -24 16 -5 3 8 0 17 -7 19 -10 4 -12 -1 -9 -14z"/>
<path d="M17061 1226 c-8 -9 -8 -16 -2 -20 6 -4 8 -13 5 -21 -4 -8 -10 -12
-15 -9 -13 8 -80 -27 -73 -38 4 -6 9 -6 14 2 4 7 10 8 12 4 3 -5 3 -3 1 5 -2
8 2 11 12 7 8 -3 15 -1 15 3 0 5 9 7 20 4 12 -3 20 0 20 6 0 7 5 9 12 5 7 -4
8 -3 4 4 -4 7 -3 12 2 12 6 0 13 7 16 16 5 14 4 15 -9 4 -20 -17 -32 -5 -15
15 7 8 8 15 2 15 -5 0 -15 -6 -21 -14z"/>
<path d="M530 1219 c-10 -6 -11 -9 -2 -9 6 0 12 -5 12 -11 0 -5 -4 -8 -8 -5
-12 7 -52 -22 -52 -37 0 -8 3 -8 9 2 6 9 11 10 15 2 4 -6 4 -16 0 -23 -4 -7
-3 -8 5 -4 6 4 10 15 9 23 -2 9 3 18 11 21 8 3 11 0 7 -7 -10 -16 3 -14 20 4
9 8 11 15 5 15 -6 0 -8 6 -5 14 7 18 -8 27 -26 15z"/>
<path d="M850 1219 c-10 -6 -11 -9 -2 -9 6 0 12 -5 12 -11 0 -5 -4 -8 -8 -5
-12 7 -52 -22 -52 -37 0 -8 3 -8 9 2 6 9 11 10 15 2 4 -6 4 -16 0 -23 -4 -7
-3 -8 5 -4 6 4 10 15 9 23 -2 9 3 18 11 21 8 3 11 0 7 -7 -10 -16 3 -14 20 4
9 8 11 15 5 15 -6 0 -8 6 -5 14 7 18 -8 27 -26 15z"/>
<path d="M1170 1219 c-10 -6 -11 -9 -2 -9 6 0 12 -5 12 -11 0 -5 -4 -8 -8 -5
-12 7 -52 -22 -52 -37 0 -8 3 -8 9 2 6 9 11 10 15 2 4 -6 4 -16 0 -23 -4 -7
-3 -8 5 -4 6 4 10 15 9 23 -2 9 3 18 11 21 8 3 11 0 7 -7 -10 -16 3 -14 20 4
9 8 11 15 5 15 -6 0 -8 6 -5 14 7 18 -8 27 -26 15z"/>
<path d="M17170 1219 c-10 -6 -11 -9 -2 -9 6 0 12 -5 12 -11 0 -5 -4 -8 -8 -5
-12 7 -52 -22 -52 -37 0 -8 3 -8 9 2 6 9 11 10 15 2 4 -6 4 -16 0 -23 -4 -7
-3 -8 5 -4 6 4 10 15 9 23 -2 9 3 18 11 21 8 3 11 0 7 -7 -10 -16 3 -14 20 4
9 8 11 15 5 15 -6 0 -8 6 -5 14 7 18 -8 27 -26 15z"/>
<path d="M18028 1223 c0 -5 -2 -12 -3 -18 -2 -5 -3 -16 -4 -23 0 -7 -5 -10
-11 -7 -14 9 -81 -25 -74 -37 4 -6 9 -6 14 2 4 7 10 8 12 4 3 -5 3 -3 1 5 -2
8 2 11 12 7 8 -3 15 -1 15 3 0 5 9 7 20 4 12 -3 20 0 20 6 0 7 5 9 12 5 7 -4
8 -3 4 4 -4 7 -3 12 2 12 6 0 13 8 17 18 5 14 4 15 -6 5 -18 -18 -32 -16 -25
2 3 8 3 15 1 15 -3 0 -6 -3 -7 -7z"/>
<path d="M18130 1219 c-10 -6 -11 -9 -2 -9 6 0 12 -5 12 -11 0 -5 -4 -8 -8 -5
-12 7 -52 -22 -52 -37 0 -8 3 -8 9 2 6 9 11 10 15 2 4 -6 4 -16 0 -23 -4 -7
-3 -8 5 -4 6 4 10 15 9 23 -2 9 3 18 11 21 8 3 11 0 7 -7 -10 -16 3 -14 20 4
9 8 11 15 5 15 -6 0 -8 6 -5 14 7 18 -8 27 -26 15z"/>
<path d="M18450 1219 c-10 -6 -11 -9 -2 -9 6 0 12 -5 12 -11 0 -5 -4 -8 -8 -5
-12 7 -52 -22 -52 -37 0 -8 3 -8 9 2 6 9 11 10 15 2 4 -6 4 -16 0 -23 -4 -7
-3 -8 5 -4 6 4 10 15 9 23 -2 9 3 18 11 21 8 3 11 0 7 -7 -4 -6 -2 -11 3 -11
6 0 11 3 12 8 0 4 2 17 5 29 4 26 -6 35 -26 22z"/>
<path d="M277 1199 c-19 -11 -23 -29 -6 -29 5 0 7 5 3 12 -5 8 -2 9 9 5 9 -3
19 -2 22 3 8 14 -9 19 -28 9z"/>
<path d="M597 1199 c-19 -11 -23 -29 -6 -29 5 0 7 5 3 12 -5 8 -2 9 9 5 9 -3
19 -2 22 3 8 14 -9 19 -28 9z"/>
<path d="M917 1199 c-19 -11 -23 -29 -6 -29 5 0 7 5 3 12 -5 8 -2 9 9 5 9 -3
19 -2 22 3 8 14 -9 19 -28 9z"/>
<path d="M1237 1199 c-19 -11 -23 -29 -6 -29 5 0 7 5 3 12 -5 8 -2 9 9 5 9 -3
19 -2 22 3 8 14 -9 19 -28 9z"/>
<path d="M17237 1199 c-19 -11 -23 -29 -6 -29 5 0 7 5 3 12 -5 8 -2 9 9 5 9
-3 19 -2 22 3 8 14 -9 19 -28 9z"/>
<path d="M18197 1199 c-19 -11 -23 -29 -6 -29 5 0 7 5 3 12 -5 8 -2 9 9 5 9
-3 19 -2 22 3 8 14 -9 19 -28 9z"/>
<path d="M17462 1184 c-12 -8 -22 -21 -22 -27 0 -8 3 -8 9 2 6 9 11 10 15 2 4
-6 4 -16 0 -23 -5 -7 -3 -8 5 -4 7 5 10 14 7 22 -3 7 2 17 11 22 9 5 11 12 6
15 -5 3 -19 -1 -31 -9z"/>
<path d="M1450 1175 c-7 -9 -10 -18 -6 -22 3 -3 6 -1 6 5 0 7 5 11 11 10 6 -2
14 3 16 10 6 17 -12 15 -27 -3z"/>
<path d="M288 1158 c-17 -14 -23 -16 -30 -6 -5 9 -8 8 -8 -5 0 -14 5 -17 23
-11 12 3 25 13 30 20 4 7 14 11 22 8 8 -4 15 -2 15 3 0 16 -29 11 -52 -9z"/>
<path d="M608 1158 c-17 -14 -23 -16 -30 -6 -5 9 -8 8 -8 -5 0 -10 -4 -15 -10
-12 -5 3 -10 1 -10 -4 0 -6 -3 -10 -7 -10 -21 3 -33 -2 -33 -16 0 -9 6 -12 15
-9 11 5 13 2 9 -10 -3 -9 -11 -13 -17 -9 -6 4 -7 1 -2 -7 5 -9 2 -11 -11 -6
-20 6 -62 -19 -51 -30 4 -4 2 -13 -4 -21 -9 -9 -8 -13 0 -13 6 0 12 5 12 10 1
6 2 14 3 19 2 15 16 25 16 12 0 -7 4 -10 9 -7 5 4 11 3 14 -1 2 -5 2 -2 0 6
-2 8 2 11 12 7 9 -3 13 -2 10 4 -3 6 -1 10 4 10 6 0 11 8 11 18 0 14 2 15 10
2 6 -9 10 -10 10 -3 0 6 -5 15 -10 18 -12 7 -4 25 11 25 6 0 8 -4 4 -9 -3 -5
0 -13 6 -17 8 -4 9 -3 5 4 -4 7 -1 12 6 12 10 0 9 3 -1 9 -12 8 -9 11 11 16
15 4 29 13 32 21 3 7 12 11 21 8 8 -3 15 -2 15 3 0 16 -29 11 -52 -9z"/>
<path d="M928 1158 c-17 -14 -23 -16 -30 -6 -5 9 -8 8 -8 -5 0 -10 -4 -15 -10
-12 -5 3 -10 1 -10 -4 0 -6 -3 -10 -7 -10 -21 3 -33 -2 -33 -16 0 -9 6 -12 17
-8 10 4 14 2 10 -4 -3 -5 0 -10 8 -10 10 0 12 4 5 12 -10 12 -4 25 12 25 5 0
7 -4 3 -9 -3 -5 0 -13 6 -17 8 -4 9 -3 5 4 -4 7 -1 12 6 12 10 0 9 3 -1 9 -12
8 -9 11 11 16 15 4 29 13 32 21 3 7 12 11 21 8 8 -3 15 -2 15 3 0 16 -29 11
-52 -9z"/>
<path d="M1248 1158 c-17 -14 -23 -16 -30 -6 -5 9 -8 8 -8 -5 0 -10 -4 -15
-10 -12 -5 3 -10 1 -10 -4 0 -6 -3 -10 -7 -10 -21 3 -33 -2 -33 -16 0 -9 6
-12 17 -8 10 4 14 2 10 -4 -3 -5 0 -10 8 -10 10 0 12 4 5 12 -10 12 -4 25 12
25 5 0 7 -4 3 -9 -3 -5 0 -13 6 -17 8 -4 9 -3 5 4 -4 7 -1 12 6 12 10 0 9 3
-1 9 -12 8 -9 11 11 16 15 4 29 13 32 21 3 7 12 11 21 8 8 -3 15 -2 15 3 0 16
-29 11 -52 -9z"/>
<path d="M17248 1158 c-17 -14 -23 -16 -30 -6 -5 9 -8 8 -8 -5 0 -10 -4 -15
-10 -12 -5 3 -10 1 -10 -4 0 -6 -3 -10 -7 -10 -21 3 -33 -2 -33 -16 0 -9 6
-12 15 -9 11 5 13 2 9 -10 -3 -9 -11 -13 -17 -9 -6 4 -7 1 -2 -7 5 -9 2 -11
-11 -6 -22 6 -59 -18 -50 -33 4 -5 -2 -14 -11 -20 -10 -5 -15 -12 -12 -16 9
-8 40 25 34 35 -3 5 -1 11 5 15 5 3 10 1 10 -5 0 -6 4 -9 9 -6 5 4 11 3 14 -1
2 -5 2 -2 0 6 -2 8 2 11 12 7 9 -3 13 -2 10 4 -3 6 -1 10 4 10 6 0 11 8 11 18
0 14 2 15 10 2 6 -9 10 -10 10 -3 0 6 -5 15 -10 18 -12 7 -4 25 11 25 6 0 8
-4 4 -9 -3 -5 0 -13 6 -17 8 -4 9 -3 5 4 -4 7 -1 12 6 12 10 0 9 3 -1 9 -12 8
-9 11 11 16 15 4 29 13 32 21 3 7 12 11 21 8 8 -3 15 -2 15 3 0 16 -29 11 -52
-9z"/>
<path d="M18208 1158 c-17 -14 -23 -16 -30 -6 -5 9 -8 8 -8 -5 0 -10 -4 -15
-10 -12 -5 3 -10 1 -10 -4 0 -6 -3 -10 -7 -10 -21 3 -33 -2 -33 -16 0 -9 6
-12 15 -9 11 5 13 2 9 -10 -3 -9 -11 -13 -17 -9 -6 4 -7 1 -2 -7 5 -9 2 -11
-11 -6 -22 6 -59 -18 -50 -33 4 -5 -2 -14 -11 -20 -10 -5 -15 -12 -12 -16 9
-8 40 25 34 35 -3 5 -1 11 5 15 5 3 10 1 10 -5 0 -6 4 -9 9 -6 5 4 11 3 14 -1
2 -5 2 -2 0 6 -2 8 2 11 12 7 9 -3 13 -2 10 4 -3 6 -1 10 4 10 6 0 11 8 11 18
0 14 2 15 10 2 6 -9 10 -10 10 -3 0 6 -5 15 -10 18 -12 7 -4 25 11 25 6 0 8
-4 4 -9 -3 -5 0 -13 6 -17 8 -4 9 -3 5 4 -4 7 -1 12 6 12 10 0 9 3 -1 9 -12 8
-9 11 11 16 15 4 29 13 32 21 3 7 12 11 21 8 8 -3 15 -2 15 3 0 16 -29 11 -52
-9z"/>
<path d="M310 1136 c0 -9 4 -16 9 -16 5 0 8 -8 6 -17 -1 -10 0 -12 2 -4 4 11
6 12 13 1 7 -11 12 -11 23 -1 9 7 16 8 19 2 2 -5 14 -3 28 5 l25 14 -28 -6
c-23 -5 -26 -4 -21 12 6 15 3 15 -13 -4 l-21 -23 -21 27 c-15 19 -21 22 -21
10z"/>
<path d="M406 1142 c-2 -4 4 -9 15 -9 11 -1 17 2 14 8 -7 11 -22 12 -29 1z"/>
<path d="M630 1136 c0 -9 4 -16 9 -16 5 0 8 -8 6 -17 -1 -10 0 -12 2 -4 4 11
6 12 13 1 7 -11 12 -11 23 -1 9 7 16 8 19 2 2 -5 14 -3 28 5 l25 14 -28 -6
c-23 -5 -26 -4 -21 12 6 15 3 15 -13 -4 l-21 -23 -21 27 c-15 19 -21 22 -21
10z"/>
<path d="M726 1142 c-2 -4 4 -9 15 -9 11 -1 17 2 14 8 -7 11 -22 12 -29 1z"/>
<path d="M950 1136 c0 -9 4 -16 9 -16 5 0 8 -8 6 -17 -1 -10 0 -12 2 -4 4 11
6 12 13 1 7 -11 12 -11 23 -1 9 7 16 8 19 2 2 -5 14 -3 28 5 l25 14 -28 -6
c-23 -5 -26 -4 -21 12 6 15 3 15 -13 -4 l-21 -23 -21 27 c-15 19 -21 22 -21
10z"/>
<path d="M1046 1142 c-2 -4 4 -9 15 -9 11 -1 17 2 14 8 -7 11 -22 12 -29 1z"/>
<path d="M1270 1136 c0 -9 4 -16 9 -16 5 0 8 -8 6 -17 -1 -10 0 -12 2 -4 4 11
6 12 13 1 7 -11 12 -11 23 -1 9 7 16 8 19 2 2 -5 14 -3 28 5 l25 14 -28 -6
c-23 -5 -26 -4 -21 12 6 15 3 15 -13 -4 l-21 -23 -21 27 c-15 19 -21 22 -21
10z"/>
<path d="M1366 1142 c-2 -4 4 -9 15 -9 11 -1 17 2 14 8 -7 11 -22 12 -29 1z"/>
<path d="M17046 1142 c-2 -4 4 -9 15 -9 11 -1 17 2 14 8 -7 11 -22 12 -29 1z"/>
<path d="M17270 1136 c0 -9 4 -16 9 -16 5 0 8 -8 6 -17 -1 -10 0 -12 2 -4 4
11 6 12 13 1 7 -11 12 -11 23 -1 9 7 16 8 19 2 2 -5 14 -3 28 5 l25 14 -28 -6
c-23 -5 -26 -4 -21 12 6 15 3 15 -13 -4 l-21 -23 -21 27 c-15 19 -21 22 -21
10z"/>
<path d="M17366 1142 c-2 -4 4 -9 15 -9 11 -1 17 2 14 8 -7 11 -22 12 -29 1z"/>
<path d="M18006 1142 c-2 -4 4 -9 15 -9 11 -1 17 2 14 8 -7 11 -22 12 -29 1z"/>
<path d="M18230 1136 c0 -9 4 -16 9 -16 5 0 8 -8 6 -17 -1 -10 0 -12 2 -4 4
11 6 12 13 1 7 -11 12 -11 23 -1 9 7 16 8 19 2 2 -5 14 -3 28 5 l25 14 -28 -6
c-23 -5 -26 -4 -21 12 6 15 3 15 -13 -4 l-21 -23 -21 27 c-15 19 -21 22 -21
10z"/>
<path d="M18326 1142 c-2 -4 4 -9 15 -9 11 -1 17 2 14 8 -7 11 -22 12 -29 1z"/>
<path d="M480 1129 c0 -5 -4 -8 -9 -4 -5 3 -12 1 -16 -5 -3 -5 1 -10 9 -10 10
0 13 -6 9 -17 -6 -15 -5 -16 9 -3 9 8 12 16 8 18 -5 2 -6 10 -3 18 3 8 2 14
-1 14 -3 0 -6 -5 -6 -11z"/>
<path d="M800 1129 c0 -5 -4 -8 -9 -4 -5 3 -12 1 -16 -5 -3 -5 1 -10 9 -10 10
0 13 -6 9 -17 -6 -15 -5 -16 9 -3 9 8 12 16 8 18 -5 2 -6 10 -3 18 3 8 2 14
-1 14 -3 0 -6 -5 -6 -11z"/>
<path d="M1120 1129 c0 -5 -4 -8 -9 -4 -5 3 -12 1 -16 -5 -3 -5 1 -10 9 -10
10 0 13 -6 9 -17 -6 -15 -5 -16 9 -3 9 8 12 16 8 18 -5 2 -6 10 -3 18 3 8 2
14 -1 14 -3 0 -6 -5 -6 -11z"/>
<path d="M1440 1131 c0 -7 -4 -10 -9 -6 -5 3 -12 1 -16 -5 -3 -5 1 -10 9 -10
17 0 31 18 22 27 -3 4 -6 1 -6 -6z"/>
<path d="M16950 1132 c0 -6 4 -12 9 -12 5 0 8 -8 6 -17 -1 -10 0 -12 2 -4 4
11 6 12 13 1 7 -11 12 -11 23 -1 9 7 16 8 19 2 2 -5 14 -3 28 5 l25 14 -28 -6
c-23 -5 -26 -4 -21 12 6 16 4 15 -13 -3 l-20 -22 -21 22 c-12 12 -22 16 -22 9z"/>
<path d="M17120 1129 c0 -5 -4 -8 -9 -4 -5 3 -12 1 -16 -5 -3 -5 1 -10 9 -10
10 0 13 -6 9 -17 -6 -15 -5 -16 9 -3 9 8 12 16 8 18 -5 2 -6 10 -3 18 3 8 2
14 -1 14 -3 0 -6 -5 -6 -11z"/>
<path d="M17440 1129 c0 -5 -4 -8 -9 -4 -5 3 -12 1 -16 -5 -3 -5 1 -10 9 -10
10 0 13 -6 9 -17 -6 -15 -5 -16 9 -3 9 8 12 16 8 18 -5 2 -6 10 -3 18 3 8 2
14 -1 14 -3 0 -6 -5 -6 -11z"/>
<path d="M17970 1120 c-13 -18 -15 -18 -32 -3 -10 9 -21 13 -25 10 -3 -4 -2
-7 4 -7 6 0 10 -8 8 -17 -1 -10 0 -12 2 -4 4 11 6 12 13 1 7 -11 12 -11 23 -1
9 7 16 8 19 2 2 -5 14 -3 28 5 l25 14 -28 -6 c-22 -5 -26 -3 -21 10 8 22 1 20
-16 -4z"/>
<path d="M18080 1129 c0 -5 -4 -8 -9 -4 -5 3 -12 1 -16 -5 -3 -5 1 -10 9 -10
10 0 13 -6 9 -17 -6 -15 -5 -16 9 -3 9 8 12 16 8 18 -5 2 -6 10 -3 18 3 8 2
14 -1 14 -3 0 -6 -5 -6 -11z"/>
<path d="M18400 1129 c0 -5 -4 -8 -9 -4 -5 3 -12 1 -16 -5 -3 -5 1 -10 9 -10
10 0 13 -6 9 -17 -6 -15 -5 -16 9 -3 9 8 12 16 8 18 -5 2 -6 10 -3 18 3 8 2
14 -1 14 -3 0 -6 -5 -6 -11z"/>
<path d="M18470 1132 c0 -7 -3 -11 -7 -11 -21 3 -33 -2 -33 -16 0 -9 6 -12 15
-9 11 5 13 2 9 -10 -3 -9 -11 -13 -17 -9 -6 4 -7 1 -2 -7 5 -9 2 -11 -11 -6
-22 6 -59 -18 -50 -33 4 -5 -2 -14 -11 -20 -10 -5 -15 -12 -12 -16 9 -8 40 25
34 35 -3 5 -1 11 5 15 5 3 10 1 10 -5 0 -6 4 -9 9 -6 5 4 11 3 14 -1 2 -5 2
-2 0 6 -2 8 2 11 12 7 9 -3 13 -2 10 4 -3 6 -1 10 4 10 6 0 11 8 11 18 0 14 2
15 10 2 6 -9 10 -10 10 -3 0 6 -5 15 -10 18 -8 5 -7 11 1 21 6 8 9 17 5 21 -3
3 -6 1 -6 -5z"/>
<path d="M17483 1123 c-7 -2 -13 -11 -13 -19 0 -7 6 -11 13 -8 8 3 14 11 14
19 0 8 -1 15 -1 14 -1 0 -7 -3 -13 -6z"/>
<path d="M608 1082 c3 -10 1 -13 -6 -8 -7 4 -12 2 -12 -3 0 -6 5 -11 11 -11 5
0 7 -5 3 -12 -4 -6 -3 -8 4 -4 6 3 13 -3 17 -14 6 -17 9 -19 22 -9 12 10 16
10 24 -2 7 -11 9 -11 9 4 0 9 -7 17 -15 17 -8 0 -15 7 -15 15 0 8 -4 15 -10
15 -5 0 -10 6 -10 13 0 8 -6 14 -14 14 -8 0 -12 -6 -8 -15z m27 -22 c3 -5 2
-10 -4 -10 -5 0 -13 5 -16 10 -3 6 -2 10 4 10 5 0 13 -4 16 -10z"/>
<path d="M926 1088 c3 -4 9 -8 15 -8 5 0 9 4 9 8 0 5 -7 9 -15 9 -8 0 -12 -4
-9 -9z"/>
<path d="M1246 1088 c3 -4 9 -8 15 -8 5 0 9 4 9 8 0 5 -7 9 -15 9 -8 0 -12 -4
-9 -9z"/>
<path d="M16928 1082 c3 -10 1 -13 -6 -8 -7 4 -12 2 -12 -3 0 -6 5 -11 11 -11
5 0 7 -5 3 -12 -4 -6 -3 -8 4 -4 6 3 13 -3 17 -14 6 -17 9 -19 22 -9 12 10 16
10 23 0 5 -10 9 -10 15 -1 4 7 -1 13 -14 17 -12 3 -21 12 -21 19 0 8 -4 14
-10 14 -5 0 -10 6 -10 13 0 8 -6 14 -14 14 -8 0 -12 -6 -8 -15z m27 -22 c3 -5
2 -10 -4 -10 -5 0 -13 5 -16 10 -3 6 -2 10 4 10 5 0 13 -4 16 -10z"/>
<path d="M17248 1082 c3 -10 1 -13 -6 -8 -7 4 -12 2 -12 -3 0 -6 5 -11 10 -11
6 0 16 -11 22 -25 9 -20 14 -23 25 -13 11 9 16 9 23 -1 5 -10 9 -10 15 -1 4 7
-1 13 -14 17 -12 3 -21 12 -21 19 0 8 -4 14 -10 14 -5 0 -10 6 -10 13 0 8 -6
14 -14 14 -8 0 -12 -6 -8 -15z m27 -22 c3 -5 2 -10 -4 -10 -5 0 -13 5 -16 10
-3 6 -2 10 4 10 5 0 13 -4 16 -10z"/>
<path d="M17888 1080 c-10 -11 -13 -20 -7 -20 5 0 7 -5 3 -12 -4 -6 -3 -8 4
-4 6 3 13 -3 17 -14 6 -17 9 -19 22 -9 12 10 16 10 23 0 5 -10 9 -10 15 -1 4
7 -1 13 -14 17 -12 3 -21 12 -21 19 0 8 -4 14 -9 14 -5 0 -11 7 -13 15 -2 13
-6 12 -20 -5z m27 -20 c3 -5 2 -10 -4 -10 -5 0 -13 5 -16 10 -3 6 -2 10 4 10
5 0 13 -4 16 -10z"/>
<path d="M18208 1082 c3 -10 1 -13 -6 -8 -7 4 -12 2 -12 -4 0 -7 7 -9 16 -6 9
3 18 6 20 6 2 0 4 6 4 13 0 8 -6 14 -14 14 -8 0 -12 -6 -8 -15z"/>
<path d="M17035 1079 c-4 -6 -5 -12 -2 -15 2 -3 7 2 10 11 7 17 1 20 -8 4z"/>
<path d="M17081 1074 c0 -11 3 -14 6 -6 3 7 2 16 -1 19 -3 4 -6 -2 -5 -13z"/>
<path d="M17355 1079 c-4 -6 -5 -12 -2 -15 2 -3 7 2 10 11 7 17 1 20 -8 4z"/>
<path d="M17401 1074 c0 -11 3 -14 6 -6 3 7 2 16 -1 19 -3 4 -6 -2 -5 -13z"/>
<path d="M17491 1082 c-1 -7 -6 -10 -13 -6 -7 5 -8 3 -3 -6 5 -9 2 -11 -11 -6
-22 6 -59 -18 -50 -33 4 -5 -2 -14 -11 -20 -10 -5 -15 -12 -12 -16 9 -8 40 25
34 35 -3 5 -1 11 5 15 5 3 10 1 10 -5 0 -6 4 -9 9 -6 5 4 11 3 14 -1 2 -5 2
-2 0 6 -2 8 2 11 12 7 9 -3 14 -2 10 3 -3 5 0 11 6 13 7 2 9 11 6 19 -4 10 -6
10 -6 1z"/>
<path d="M17995 1079 c-4 -6 -5 -12 -2 -15 2 -3 7 2 10 11 7 17 1 20 -8 4z"/>
<path d="M18041 1074 c0 -11 3 -14 6 -6 3 7 2 16 -1 19 -3 4 -6 -2 -5 -13z"/>
<path d="M18315 1079 c-4 -6 -5 -12 -2 -15 2 -3 7 2 10 11 7 17 1 20 -8 4z"/>
<path d="M18361 1074 c0 -11 3 -14 6 -6 3 7 2 16 -1 19 -3 4 -6 -2 -5 -13z"/>
<path d="M17060 1065 c0 -7 -8 -19 -17 -25 -15 -9 -15 -11 -2 -7 9 3 22 0 28
-6 8 -8 11 -8 11 1 0 7 -4 12 -9 12 -5 0 -7 9 -4 20 3 11 3 20 -1 20 -3 0 -6
-7 -6 -15z"/>
<path d="M17380 1065 c0 -7 -8 -19 -17 -25 -15 -9 -15 -11 -2 -7 9 3 22 0 28
-6 8 -8 11 -8 11 1 0 7 -4 12 -9 12 -5 0 -7 9 -4 20 3 11 3 20 -1 20 -3 0 -6
-7 -6 -15z"/>
<path d="M18020 1065 c0 -7 -8 -19 -17 -25 -15 -9 -15 -11 -2 -7 9 3 22 0 28
-6 8 -8 11 -8 11 1 0 7 -4 12 -9 12 -5 0 -7 9 -4 20 3 11 3 20 -1 20 -3 0 -6
-7 -6 -15z"/>
<path d="M18340 1065 c0 -7 -8 -19 -17 -25 -15 -9 -15 -11 -2 -7 9 3 22 0 28
-6 8 -8 11 -8 11 1 0 7 -4 12 -9 12 -5 0 -7 9 -4 20 3 11 3 20 -1 20 -3 0 -6
-7 -6 -15z"/>
<path d="M18243 1048 c1 -15 5 -24 10 -21 5 3 13 0 17 -7 6 -9 9 -9 15 0 4 7
-1 13 -13 17 -12 3 -23 12 -25 22 -3 9 -4 4 -4 -11z"/>
<path d="M580 1030 c0 -7 -3 -10 -7 -7 -3 4 -12 -1 -18 -10 -18 -24 3 -46 24
-26 11 12 15 12 22 2 6 -10 10 -9 15 4 4 10 1 24 -5 30 -9 9 -11 8 -6 -3 4
-11 -1 -16 -16 -17 -17 -2 -18 1 -8 13 6 8 9 17 5 21 -3 3 -6 0 -6 -7z"/>
<path d="M16900 1031 c0 -7 -4 -9 -10 -6 -5 3 -10 1 -10 -4 0 -6 4 -11 9 -11
13 0 25 20 17 27 -3 4 -6 1 -6 -6z"/>
<path d="M16926 1016 c4 -12 4 -17 -2 -13 -6 3 -16 1 -24 -5 -12 -8 -12 -9 2
-5 9 3 19 1 21 -6 3 -7 7 -5 12 6 5 11 3 23 -4 30 -9 9 -11 8 -5 -7z"/>
<path d="M17884 1004 c-1 -13 2 -21 7 -18 11 6 12 31 2 37 -5 3 -9 -6 -9 -19z"/>
<path d="M483 1005 c0 -7 8 -10 19 -7 10 2 18 6 18 7 0 1 -8 5 -18 7 -11 3
-19 0 -19 -7z"/>
<path d="M17123 1005 c0 -7 8 -10 19 -7 10 2 18 6 18 7 0 1 -8 5 -18 7 -11 3
-19 0 -19 -7z"/>
<path d="M17251 1004 c0 -11 3 -14 6 -6 3 7 2 16 -1 19 -3 4 -6 -2 -5 -13z"/>
<path d="M17443 1005 c0 -7 8 -10 19 -7 10 2 18 6 18 7 0 1 -8 5 -18 7 -11 3
-19 0 -19 -7z"/>
<path d="M18083 1005 c0 -7 8 -10 19 -7 10 2 18 6 18 7 0 1 -8 5 -18 7 -11 3
-19 0 -19 -7z"/>
<path d="M18403 1005 c0 -7 8 -10 19 -7 10 2 18 6 18 7 0 1 -8 5 -18 7 -11 3
-19 0 -19 -7z"/>
<path d="M17015 1000 c-4 -6 -11 -7 -17 -4 -6 4 -8 2 -4 -4 3 -6 2 -13 -3 -17
-12 -7 -3 -34 16 -53 18 -18 16 -6 -3 23 -15 23 -15 25 0 25 10 0 15 4 11 9
-3 6 3 14 12 20 10 6 13 11 6 11 -6 0 -15 -5 -18 -10z"/>
<path d="M17335 1000 c-4 -6 -11 -7 -17 -4 -6 4 -8 2 -4 -4 3 -6 2 -13 -3 -16
-11 -7 -2 -46 10 -46 5 0 9 -8 10 -17 0 -10 3 -13 5 -6 3 6 -2 23 -12 37 -15
24 -15 26 0 26 10 0 15 4 11 9 -3 6 3 14 12 20 10 6 13 11 6 11 -6 0 -15 -5
-18 -10z"/>
<path d="M17975 1000 c-4 -6 -11 -7 -17 -4 -6 4 -8 2 -4 -4 3 -6 2 -13 -3 -16
-11 -7 -2 -46 11 -46 5 0 4 9 -2 20 -9 16 -8 20 5 20 9 0 14 4 10 9 -3 6 3 14
12 20 10 6 13 11 6 11 -6 0 -15 -5 -18 -10z"/>
<path d="M18295 1000 c-4 -6 -11 -7 -17 -4 -6 4 -8 2 -4 -4 3 -6 2 -13 -3 -16
-11 -7 -2 -46 10 -46 5 0 9 -8 10 -17 0 -10 3 -13 5 -6 3 6 -2 23 -12 37 -15
24 -15 26 0 26 10 0 15 4 11 9 -3 6 3 14 12 20 10 6 13 11 6 11 -6 0 -15 -5
-18 -10z"/>
<path d="M18465 1000 c-3 -5 -1 -10 4 -10 6 0 11 5 11 10 0 6 -2 10 -4 10 -3
0 -8 -4 -11 -10z"/>
<path d="M445 980 c-3 -6 1 -7 9 -4 18 7 21 14 7 14 -6 0 -13 -4 -16 -10z"/>
<path d="M17035 971 c6 -20 5 -23 -11 -17 -10 4 -15 3 -10 -1 15 -16 52 -9 53
9 1 10 -2 20 -8 23 -5 3 -6 -2 -3 -12 5 -16 3 -15 -11 2 -17 20 -17 20 -10 -4z"/>
<path d="M17085 980 c-3 -6 1 -7 9 -4 18 7 21 14 7 14 -6 0 -13 -4 -16 -10z"/>
<path d="M17355 971 c6 -20 5 -23 -11 -17 -10 4 -15 3 -10 -1 15 -16 52 -9 53
9 1 10 -2 20 -8 23 -5 3 -6 -2 -3 -12 5 -16 3 -15 -11 2 -17 20 -17 20 -10 -4z"/>
<path d="M17405 980 c-3 -6 1 -7 9 -4 18 7 21 14 7 14 -6 0 -13 -4 -16 -10z"/>
<path d="M17995 971 c6 -20 5 -23 -11 -17 -10 4 -15 3 -10 -1 15 -16 52 -9 53
9 1 10 -2 20 -8 23 -5 3 -6 -2 -3 -12 5 -16 3 -15 -11 2 -17 20 -17 20 -10 -4z"/>
<path d="M18045 980 c-3 -6 1 -7 9 -4 18 7 21 14 7 14 -6 0 -13 -4 -16 -10z"/>
<path d="M18315 971 c6 -20 5 -23 -11 -17 -10 4 -15 3 -10 -1 15 -16 52 -9 53
9 1 10 -2 20 -8 23 -5 3 -6 -2 -3 -12 5 -16 3 -15 -11 2 -17 20 -17 20 -10 -4z"/>
<path d="M18365 980 c-3 -6 1 -7 9 -4 18 7 21 14 7 14 -6 0 -13 -4 -16 -10z"/>
<path d="M470 970 c-13 -9 -13 -10 0 -10 8 0 22 5 30 10 13 9 13 10 0 10 -8 0
-22 -5 -30 -10z"/>
<path d="M590 963 c9 -20 13 -21 30 -11 10 7 17 14 14 17 -2 3 -10 -1 -16 -7
-8 -8 -15 -7 -25 6 -13 15 -13 15 -3 -5z"/>
<path d="M16910 963 c9 -20 13 -21 30 -11 10 7 17 14 14 17 -2 3 -10 -1 -16
-7 -8 -8 -15 -7 -25 6 -13 15 -13 15 -3 -5z"/>
<path d="M17110 970 c-9 -6 -10 -10 -3 -10 6 0 15 5 18 10 8 12 4 12 -15 0z"/>
<path d="M17430 970 c-13 -9 -13 -10 0 -10 8 0 22 5 30 10 13 9 13 10 0 10 -8
0 -22 -5 -30 -10z"/>
<path d="M18070 970 c-8 -5 -10 -10 -5 -10 6 0 17 5 25 10 8 5 11 10 5 10 -5
0 -17 -5 -25 -10z"/>
<path d="M18390 970 c-13 -9 -13 -10 0 -10 8 0 22 5 30 10 13 9 13 10 0 10 -8
0 -22 -5 -30 -10z"/>
<path d="M520 960 c0 -7 -3 -10 -7 -7 -3 4 -13 -2 -20 -13 -8 -11 -19 -18 -24
-15 -15 10 -10 -2 8 -16 9 -8 14 -9 10 -2 -4 6 5 20 20 31 16 11 25 24 20 28
-4 4 -7 1 -7 -6z"/>
<path d="M17255 960 c-3 -6 1 -7 9 -4 18 7 21 14 7 14 -6 0 -13 -4 -16 -10z"/>
<path d="M17480 960 c0 -7 -3 -10 -7 -7 -3 4 -13 -2 -20 -13 -8 -11 -19 -18
-24 -15 -15 10 -10 -2 8 -16 9 -8 14 -9 10 -2 -4 6 5 20 20 31 16 11 25 24 20
28 -4 4 -7 1 -7 -6z"/>
<path d="M18440 960 c0 -7 -3 -10 -7 -7 -3 4 -13 -2 -20 -13 -8 -11 -19 -18
-24 -15 -15 10 -10 -2 8 -16 9 -8 14 -9 10 -2 -4 6 5 20 20 31 16 11 25 24 20
28 -4 4 -7 1 -7 -6z"/>
<path d="M570 949 c0 -5 -5 -7 -12 -3 -7 5 -8 3 -3 -6 6 -10 4 -12 -8 -7 -9 3
-19 1 -23 -6 -4 -7 -4 -9 1 -5 12 11 45 -11 45 -30 0 -14 2 -15 10 -2 6 10 5
17 -6 23 -8 5 -12 13 -9 18 4 5 11 7 16 4 5 -3 6 1 3 9 -7 18 -14 21 -14 5z"/>
<path d="M651 941 c0 -7 -7 -11 -14 -8 -8 3 -14 -3 -14 -14 -1 -10 3 -19 8
-19 6 0 7 5 4 10 -10 16 11 12 25 -5 10 -12 10 -15 -4 -15 -9 0 -16 -5 -16
-11 0 -5 5 -7 11 -3 6 3 15 0 20 -7 5 -8 9 -9 9 -3 0 6 11 10 25 9 14 -2 23 1
19 7 -3 5 -12 7 -19 4 -16 -6 -38 17 -27 29 4 5 2 5 -5 1 -7 -4 -13 2 -16 16
-2 13 -5 17 -6 9z"/>
<path d="M670 941 c0 -6 4 -11 9 -11 5 0 12 -8 14 -17 4 -15 5 -15 6 -2 0 9
-6 22 -14 29 -10 9 -15 9 -15 1z"/>
<path d="M810 935 c-7 -8 -17 -12 -24 -8 -6 4 -5 -1 3 -10 14 -18 26 -23 16
-8 -3 5 5 17 17 25 12 9 17 16 11 16 -6 0 -16 -7 -23 -15z"/>
<path d="M877 937 c4 -6 0 -8 -10 -4 -9 3 -19 1 -23 -6 -4 -7 -4 -9 1 -5 12
11 45 -11 45 -30 0 -14 2 -15 10 -2 6 10 5 17 -6 23 -8 5 -12 13 -9 18 4 5 12
6 18 3 7 -4 8 -3 4 1 -11 13 -38 15 -30 2z"/>
<path d="M971 941 c0 -7 -7 -11 -14 -8 -8 3 -14 -3 -14 -14 -1 -10 3 -19 8
-19 6 0 7 5 4 10 -10 16 11 12 25 -5 10 -12 10 -15 -4 -15 -9 0 -16 -5 -16
-11 0 -5 5 -7 11 -3 6 3 15 0 20 -7 5 -8 9 -9 9 -3 0 6 11 10 25 9 14 -2 23 1
19 7 -3 5 -12 7 -19 4 -16 -6 -38 17 -27 29 4 5 2 5 -5 1 -7 -4 -13 2 -16 16
-2 13 -5 17 -6 9z"/>
<path d="M990 941 c0 -6 4 -11 9 -11 5 0 12 -8 14 -17 4 -15 5 -15 6 -2 0 9
-6 22 -14 29 -10 9 -15 9 -15 1z"/>
<path d="M16971 941 c-1 -8 -8 -11 -18 -7 -15 5 -14 3 2 -9 20 -16 31 -7 22
18 -4 9 -6 9 -6 -2z"/>
<path d="M17291 941 c0 -7 -7 -11 -14 -8 -8 3 -14 -3 -14 -14 -1 -10 3 -19 8
-19 6 0 7 5 4 10 -10 16 11 12 25 -5 10 -12 10 -15 -4 -15 -9 0 -16 -5 -16
-11 0 -5 5 -7 11 -3 6 3 15 0 20 -7 5 -8 9 -9 9 -3 0 6 11 10 25 9 14 -2 23 1
19 7 -3 5 -12 7 -19 4 -16 -6 -38 17 -27 29 4 5 2 5 -5 1 -7 -4 -13 2 -16 16
-2 13 -5 17 -6 9z"/>
<path d="M18249 940 c-4 -8 0 -23 9 -32 14 -16 13 -18 -1 -18 -10 0 -17 -5
-17 -11 0 -5 5 -7 11 -3 6 3 15 0 20 -7 5 -8 9 -9 9 -3 0 6 11 10 25 9 14 -2
23 1 19 7 -3 5 -12 7 -19 4 -16 -6 -38 17 -27 29 4 5 2 5 -5 1 -7 -4 -13 2
-15 16 -3 17 -5 19 -9 8z"/>
<path d="M1125 930 c-4 -6 -11 -8 -16 -5 -16 10 -10 -2 9 -16 9 -7 14 -9 10
-5 -4 5 -3 15 3 23 6 7 9 13 6 13 -3 0 -9 -5 -12 -10z"/>
<path d="M18446 932 c-3 -4 4 -9 15 -9 23 -2 25 3 4 10 -8 4 -16 3 -19 -1z"/>
<path d="M424 902 c1 -15 -2 -35 -7 -44 -5 -11 -4 -18 3 -18 5 0 10 5 10 11 0
5 5 7 12 3 7 -4 8 -3 4 4 -4 7 -3 12 2 12 6 0 13 7 16 16 5 14 4 15 -9 4 -19
-16 -32 -5 -16 14 9 10 8 15 -2 19 -10 4 -14 -3 -13 -21z"/>
<path d="M743 924 c4 -4 2 -13 -4 -20 -6 -8 -7 -14 0 -18 6 -4 8 -13 5 -21 -4
-8 -10 -12 -15 -9 -13 8 -80 -27 -73 -38 4 -6 9 -6 14 2 4 7 10 8 12 4 3 -5 3
-3 1 5 -2 8 2 11 12 7 8 -3 15 -1 15 3 0 5 9 7 20 4 12 -3 20 0 20 6 0 7 5 9
12 5 7 -4 8 -3 4 4 -4 7 -3 12 2 12 6 0 13 7 16 16 5 14 4 15 -9 4 -19 -16
-32 -5 -16 14 9 11 8 15 -6 20 -10 4 -14 4 -10 0z"/>
<path d="M1063 924 c4 -4 2 -13 -4 -20 -6 -8 -7 -14 0 -18 6 -4 8 -13 5 -21
-4 -8 -10 -12 -15 -9 -13 8 -80 -27 -73 -38 4 -6 9 -6 14 2 4 7 10 8 12 4 3
-5 3 -3 1 5 -2 8 2 11 12 7 8 -3 15 -1 15 3 0 5 9 7 20 4 12 -3 20 0 20 6 0 7
5 9 12 5 7 -4 8 -3 4 4 -4 7 -3 12 2 12 6 0 13 7 16 16 5 14 4 15 -9 4 -19
-16 -32 -5 -16 14 9 11 8 15 -6 20 -10 4 -14 4 -10 0z"/>
<path d="M1193 919 c9 -5 17 -18 17 -27 0 -14 2 -15 9 -3 10 15 -12 40 -34 40
-5 0 -2 -4 8 -10z"/>
<path d="M17383 924 c4 -4 2 -13 -4 -20 -6 -8 -7 -14 0 -18 6 -4 8 -13 5 -21
-4 -8 -10 -12 -15 -9 -13 8 -80 -27 -73 -38 4 -6 9 -6 14 2 4 7 10 8 12 4 3
-5 3 -3 1 5 -2 8 2 11 12 7 8 -3 15 -1 15 3 0 5 9 7 20 4 12 -3 20 0 20 6 0 7
5 9 12 5 7 -4 8 -3 4 4 -4 7 -3 12 2 12 6 0 13 7 16 16 5 14 4 15 -9 4 -19
-16 -32 -5 -16 14 9 11 8 15 -6 20 -10 4 -14 4 -10 0z"/>
<path d="M18343 924 c4 -4 2 -13 -4 -20 -6 -8 -7 -14 0 -18 6 -4 8 -13 5 -21
-4 -8 -10 -12 -15 -9 -13 8 -80 -27 -73 -38 4 -6 9 -6 14 2 4 7 10 8 12 4 3
-5 3 -3 1 5 -2 8 2 11 12 7 8 -3 15 -1 15 3 0 5 9 7 20 4 12 -3 20 0 20 6 0 7
5 9 12 5 7 -4 8 -3 4 4 -4 7 -3 12 2 12 6 0 13 7 16 16 5 14 4 15 -9 4 -19
-16 -32 -5 -16 14 9 11 8 15 -6 20 -10 4 -14 4 -10 0z"/>
<path d="M530 899 c-10 -6 -11 -9 -2 -9 6 0 12 -5 12 -11 0 -5 -4 -8 -8 -5
-12 7 -52 -22 -52 -37 0 -8 3 -8 9 2 6 9 11 10 15 2 4 -6 4 -16 0 -23 -4 -7
-3 -8 5 -4 6 4 10 15 9 23 -2 9 3 18 11 21 8 3 11 0 7 -7 -10 -16 3 -14 20 4
9 8 11 15 5 15 -6 0 -8 6 -5 14 7 18 -8 27 -26 15z"/>
<path d="M850 899 c-10 -6 -11 -9 -2 -9 6 0 12 -5 12 -11 0 -5 -4 -8 -8 -5
-12 7 -52 -22 -52 -37 0 -8 3 -8 9 2 6 9 11 10 15 2 4 -6 4 -16 0 -23 -4 -7
-3 -8 5 -4 6 4 10 15 9 23 -2 9 3 18 11 21 8 3 11 0 7 -7 -10 -16 3 -14 20 4
9 8 11 15 5 15 -6 0 -8 6 -5 14 7 18 -8 27 -26 15z"/>
<path d="M1170 899 c-10 -6 -11 -9 -2 -9 6 0 12 -5 12 -11 0 -5 -4 -8 -8 -5
-12 7 -52 -22 -52 -37 0 -8 3 -8 9 2 6 9 11 10 15 2 4 -6 4 -16 0 -23 -4 -7
-3 -8 5 -4 6 4 10 15 9 23 -2 9 3 18 11 21 8 3 11 0 7 -7 -10 -16 3 -14 20 4
9 8 11 15 5 15 -6 0 -8 6 -5 14 7 18 -8 27 -26 15z"/>
<path d="M18450 899 c-10 -6 -11 -9 -2 -9 6 0 12 -5 12 -11 0 -5 -4 -8 -8 -5
-12 7 -52 -22 -52 -37 0 -8 3 -8 9 2 6 9 11 10 15 2 4 -6 4 -16 0 -23 -4 -7
-3 -8 5 -4 6 4 10 15 9 23 -2 9 3 18 11 21 8 3 11 0 7 -7 -4 -6 -2 -11 3 -11
6 0 11 3 12 8 0 4 2 17 5 29 4 26 -6 35 -26 22z"/>
<path d="M597 879 c-19 -11 -23 -29 -6 -29 5 0 7 5 3 12 -5 8 -2 9 9 5 9 -3
19 -2 22 3 8 14 -9 19 -28 9z"/>
<path d="M917 879 c-19 -11 -23 -29 -6 -29 5 0 7 5 3 12 -5 8 -2 9 9 5 9 -3
19 -2 22 3 8 14 -9 19 -28 9z"/>
<path d="M1237 879 c-19 -11 -23 -29 -6 -29 5 0 7 5 3 12 -5 8 -2 9 9 5 9 -3
19 -2 22 3 8 14 -9 19 -28 9z"/>
<path d="M17250 874 c0 -8 5 -12 10 -9 6 4 8 11 5 16 -9 14 -15 11 -15 -7z"/>
<path d="M17462 864 c-12 -8 -22 -21 -22 -27 0 -8 3 -8 9 2 6 9 11 10 15 2 4
-6 4 -16 0 -23 -5 -7 -3 -8 5 -4 7 5 10 14 7 22 -3 7 2 17 11 22 9 5 11 12 6
15 -5 3 -19 -1 -31 -9z"/>
<path d="M608 838 c-17 -14 -23 -16 -30 -6 -5 9 -8 8 -8 -5 0 -10 -4 -15 -10
-12 -5 3 -10 1 -10 -4 0 -6 -3 -10 -7 -10 -21 3 -33 -2 -33 -16 0 -9 6 -12 15
-9 11 5 13 2 9 -10 -3 -9 -11 -13 -17 -9 -6 4 -7 1 -2 -7 5 -9 2 -10 -12 -6
-13 4 -25 0 -34 -11 -7 -10 -10 -15 -5 -11 5 4 18 3 29 -3 15 -9 18 -8 12 2
-6 9 -3 11 9 6 10 -4 15 -3 11 3 -3 6 -1 10 4 10 6 0 11 8 11 18 0 14 2 15 10
2 6 -9 10 -10 10 -3 0 6 -5 15 -10 18 -12 7 -4 25 11 25 6 0 8 -4 4 -9 -3 -5
0 -13 6 -17 8 -4 9 -3 5 4 -4 7 -1 12 6 12 10 0 9 3 -1 9 -12 8 -9 11 11 16
15 4 29 13 32 21 3 7 12 11 21 8 8 -3 15 -2 15 3 0 16 -29 11 -52 -9z"/>
<path d="M928 838 c-17 -14 -23 -16 -30 -6 -5 9 -8 8 -8 -5 0 -10 -4 -15 -10
-12 -5 3 -10 1 -10 -4 0 -6 -3 -10 -7 -10 -21 3 -33 -2 -33 -16 0 -9 6 -12 15
-9 11 5 13 2 9 -10 -3 -9 -11 -13 -17 -9 -6 4 -7 1 -2 -7 6 -10 4 -12 -9 -7
-18 7 -56 -11 -56 -27 0 -4 7 -3 15 4 8 7 15 8 15 3 0 -5 7 -10 15 -10 8 0 11
5 8 10 -4 6 1 8 11 4 10 -4 15 -3 11 3 -3 6 -1 10 4 10 6 0 11 8 11 18 0 14 2
15 10 2 6 -9 10 -10 10 -3 0 6 -5 15 -10 18 -12 7 -4 25 11 25 6 0 8 -4 4 -9
-3 -5 0 -13 6 -17 8 -4 9 -3 5 4 -4 7 -1 12 6 12 10 0 9 3 -1 9 -12 8 -9 11
11 16 15 4 29 13 32 21 3 7 12 11 21 8 8 -3 15 -2 15 3 0 16 -29 11 -52 -9z"/>
<path d="M1248 838 c-17 -14 -23 -16 -30 -6 -5 9 -8 8 -8 -5 0 -10 -4 -15 -10
-12 -5 3 -10 1 -10 -4 0 -6 -3 -10 -7 -10 -21 3 -33 -2 -33 -16 0 -9 6 -12 15
-9 11 5 13 2 9 -10 -3 -9 -11 -13 -17 -9 -6 4 -7 1 -2 -7 6 -10 4 -12 -9 -7
-18 7 -56 -11 -56 -27 0 -4 7 -3 15 4 11 9 15 9 15 1 0 -7 4 -10 9 -7 5 4 11
3 14 -1 2 -5 2 -2 0 6 -2 8 2 11 12 7 9 -3 13 -2 10 4 -3 6 -1 10 4 10 6 0 11
8 11 18 0 14 2 15 10 2 6 -9 10 -10 10 -3 0 6 -5 15 -10 18 -12 7 -4 25 11 25
6 0 8 -4 4 -9 -3 -5 0 -13 6 -17 8 -4 9 -3 5 4 -4 7 -1 12 6 12 10 0 9 3 -1 9
-12 8 -9 11 11 16 15 4 29 13 32 21 3 7 12 11 21 8 8 -3 15 -2 15 3 0 16 -29
11 -52 -9z"/>
<path d="M17263 853 c-7 -3 -13 -12 -13 -21 1 -16 1 -16 11 0 5 10 16 15 24
12 8 -4 15 -2 15 3 0 10 -17 12 -37 6z"/>
<path d="M18245 850 c-3 -5 -1 -10 4 -10 6 0 11 5 11 10 0 6 -2 10 -4 10 -3 0
-8 -4 -11 -10z"/>
<path d="M1307 836 c-12 -9 -14 -16 -8 -21 6 -3 11 0 11 7 0 9 3 9 10 -2 7
-12 9 -10 7 8 0 12 -1 22 -2 22 0 0 -8 -7 -18 -14z"/>
<path d="M415 820 c3 -5 11 -10 16 -10 6 0 7 5 4 10 -3 6 -11 10 -16 10 -6 0
-7 -4 -4 -10z"/>
<path d="M630 816 c0 -9 4 -16 9 -16 5 0 8 -8 6 -17 -1 -10 0 -12 2 -4 4 11 6
12 13 1 7 -11 12 -11 23 -1 9 7 16 8 19 2 2 -5 14 -3 28 5 l25 14 -28 -6 c-23
-5 -26 -4 -21 12 6 15 3 15 -13 -4 l-21 -23 -21 27 c-15 19 -21 22 -21 10z"/>
<path d="M726 822 c-2 -4 4 -9 15 -9 11 -1 17 2 14 8 -7 11 -22 12 -29 1z"/>
<path d="M950 816 c0 -9 4 -16 9 -16 5 0 8 -8 6 -17 -1 -10 0 -12 2 -4 4 11 6
12 13 1 7 -11 12 -11 23 -1 9 7 16 8 19 2 2 -5 14 -3 28 5 l25 14 -28 -6 c-23
-5 -26 -4 -21 12 6 15 3 15 -13 -4 l-21 -23 -21 27 c-15 19 -21 22 -21 10z"/>
<path d="M1046 822 c-2 -4 4 -9 15 -9 11 -1 17 2 14 8 -7 11 -22 12 -29 1z"/>
<path d="M1270 816 c0 -9 4 -16 9 -16 5 0 8 -8 6 -17 -1 -10 0 -12 2 -4 4 11
6 12 13 1 7 -11 12 -11 23 -1 10 8 16 8 19 1 2 -7 10 -5 23 4 20 15 19 15 -3
9 -19 -4 -21 -2 -16 13 6 16 3 15 -13 -4 l-21 -23 -21 27 c-15 19 -21 22 -21
10z"/>
<path d="M17270 816 c0 -9 4 -16 9 -16 5 0 8 -8 6 -17 -1 -10 0 -12 2 -4 4 11
6 12 13 1 7 -11 12 -11 23 -1 9 7 16 8 19 2 2 -5 14 -3 28 5 l25 14 -28 -6
c-23 -5 -26 -4 -21 12 6 15 3 15 -13 -4 l-21 -23 -21 27 c-15 19 -21 22 -21
10z"/>
<path d="M17366 822 c-2 -4 4 -9 15 -9 11 -1 17 2 14 8 -7 11 -22 12 -29 1z"/>
<path d="M18326 822 c-2 -4 4 -9 15 -9 11 -1 17 2 14 8 -7 11 -22 12 -29 1z"/>
<path d="M480 809 c0 -5 -4 -8 -9 -4 -5 3 -12 1 -16 -5 -3 -5 1 -10 9 -10 10
0 13 -6 9 -17 -6 -15 -5 -16 9 -3 9 8 12 16 8 18 -5 2 -6 10 -3 18 3 8 2 14
-1 14 -3 0 -6 -5 -6 -11z"/>
<path d="M800 809 c0 -5 -4 -8 -9 -4 -5 3 -12 1 -16 -5 -3 -5 1 -10 9 -10 10
0 13 -6 9 -17 -6 -15 -5 -16 9 -3 9 8 12 16 8 18 -5 2 -6 10 -3 18 3 8 2 14
-1 14 -3 0 -6 -5 -6 -11z"/>
<path d="M1120 809 c0 -5 -4 -8 -9 -4 -5 3 -12 1 -16 -5 -3 -5 1 -10 9 -10 10
0 13 -6 9 -17 -6 -15 -5 -16 9 -3 9 8 12 16 8 18 -5 2 -6 10 -3 18 3 8 2 14
-1 14 -3 0 -6 -5 -6 -11z"/>
<path d="M17440 809 c0 -5 -4 -8 -9 -4 -5 3 -12 1 -16 -5 -3 -5 1 -10 9 -10
10 0 13 -6 9 -17 -6 -15 -5 -16 9 -3 9 8 12 16 8 18 -5 2 -6 10 -3 18 3 8 2
14 -1 14 -3 0 -6 -5 -6 -11z"/>
<path d="M18290 800 c-12 -17 -16 -18 -30 -5 -14 13 -16 11 -17 -13 0 -17 1
-20 4 -8 4 14 7 16 13 6 7 -11 12 -11 23 -1 9 7 16 8 19 2 2 -5 14 -3 28 5
l25 14 -28 -6 c-22 -5 -26 -3 -21 10 8 22 1 20 -16 -4z"/>
<path d="M18400 809 c0 -5 -4 -8 -9 -4 -5 3 -12 1 -16 -5 -3 -5 1 -10 9 -10
10 0 13 -6 9 -17 -6 -15 -5 -16 9 -3 9 8 12 16 8 18 -5 2 -6 10 -3 18 3 8 2
14 -1 14 -3 0 -6 -5 -6 -11z"/>
<path d="M18470 812 c0 -7 -3 -11 -7 -11 -21 3 -33 -2 -33 -16 0 -9 6 -12 15
-9 11 5 13 2 9 -10 -3 -9 -11 -13 -17 -9 -6 4 -7 1 -2 -7 5 -9 2 -11 -11 -6
-22 6 -59 -18 -50 -33 4 -5 -2 -14 -11 -20 -10 -5 -15 -12 -12 -16 9 -8 40 25
34 35 -3 5 -1 11 5 15 5 3 10 1 10 -5 0 -6 4 -9 9 -6 5 4 11 3 14 -1 2 -5 2
-2 0 6 -2 8 2 11 12 7 9 -3 13 -2 10 4 -3 6 -1 10 4 10 6 0 11 8 11 18 0 14 2
15 10 2 6 -9 10 -10 10 -3 0 6 -5 15 -10 18 -8 5 -7 11 1 21 6 8 9 17 5 21 -3
3 -6 1 -6 -5z"/>
<path d="M17483 803 c-7 -2 -13 -11 -13 -19 0 -7 6 -11 13 -8 8 3 14 11 14 19
0 8 -1 15 -1 14 -1 0 -7 -3 -13 -6z"/>
<path d="M608 762 c3 -10 1 -13 -6 -8 -7 4 -12 2 -12 -3 0 -6 5 -11 11 -11 5
0 7 -5 3 -12 -4 -7 -3 -8 4 -4 7 4 12 4 12 -1 0 -4 15 -9 33 -9 17 -1 24 1 15
3 -10 2 -18 11 -18 19 0 8 -4 14 -10 14 -5 0 -10 6 -10 13 0 8 -6 14 -14 14
-8 0 -12 -6 -8 -15z m27 -22 c3 -5 2 -10 -4 -10 -5 0 -13 5 -16 10 -3 6 -2 10
4 10 5 0 13 -4 16 -10z"/>
<path d="M928 762 c3 -10 1 -13 -6 -8 -7 4 -12 2 -12 -3 0 -6 5 -11 11 -11 5
0 7 -5 3 -12 -4 -7 -3 -8 4 -4 7 4 12 4 12 -1 0 -4 15 -9 33 -9 17 -1 24 1 15
3 -10 2 -18 11 -18 19 0 8 -4 14 -10 14 -5 0 -10 6 -10 13 0 8 -6 14 -14 14
-8 0 -12 -6 -8 -15z m27 -22 c3 -5 2 -10 -4 -10 -5 0 -13 5 -16 10 -3 6 -2 10
4 10 5 0 13 -4 16 -10z"/>
<path d="M1248 762 c3 -10 1 -13 -6 -8 -7 4 -12 2 -12 -3 0 -6 5 -11 11 -11 5
0 7 -5 3 -12 -4 -6 -3 -8 4 -4 6 3 13 -3 17 -14 6 -17 9 -19 22 -9 12 10 16
10 23 0 5 -10 9 -10 15 -1 4 7 -1 13 -14 17 -12 3 -21 12 -21 19 0 8 -4 14
-10 14 -5 0 -10 6 -10 13 0 8 -6 14 -14 14 -8 0 -12 -6 -8 -15z m27 -22 c3 -5
2 -10 -4 -10 -5 0 -13 5 -16 10 -3 6 -2 10 4 10 5 0 13 -4 16 -10z"/>
<path d="M17256 772 c-5 -9 -1 -19 10 -28 16 -14 17 -15 2 -10 -15 4 -16 2 -6
-19 9 -20 14 -23 25 -13 11 9 16 9 23 -1 5 -10 9 -10 15 -1 4 7 -1 13 -14 17
-12 3 -21 12 -21 19 0 8 -4 14 -9 14 -5 0 -11 8 -13 18 -3 13 -5 14 -12 4z"/>
<path d="M441 754 c0 -11 3 -14 6 -6 3 7 2 16 -1 19 -3 4 -6 -2 -5 -13z"/>
<path d="M715 759 c-4 -6 -5 -12 -2 -15 2 -3 7 2 10 11 7 17 1 20 -8 4z"/>
<path d="M761 754 c0 -11 3 -14 6 -6 3 7 2 16 -1 19 -3 4 -6 -2 -5 -13z"/>
<path d="M1035 759 c-4 -6 -5 -12 -2 -15 2 -3 7 2 10 11 7 17 1 20 -8 4z"/>
<path d="M1081 754 c0 -11 3 -14 6 -6 3 7 2 16 -1 19 -3 4 -6 -2 -5 -13z"/>
<path d="M1355 759 c-4 -6 -5 -12 -2 -15 2 -3 7 2 10 11 7 17 1 20 -8 4z"/>
<path d="M17355 759 c-4 -6 -5 -12 -2 -15 2 -3 7 2 10 11 7 17 1 20 -8 4z"/>
<path d="M17401 754 c0 -11 3 -14 6 -6 3 7 2 16 -1 19 -3 4 -6 -2 -5 -13z"/>
<path d="M17491 762 c-1 -7 -6 -10 -13 -6 -7 5 -8 3 -3 -6 5 -9 2 -11 -11 -6
-22 6 -59 -18 -50 -33 4 -5 -2 -14 -11 -20 -10 -5 -15 -12 -12 -16 9 -8 40 25
34 35 -3 5 -1 11 5 15 5 3 10 1 10 -5 0 -6 4 -9 9 -6 5 4 11 3 14 -1 2 -5 2
-2 0 6 -2 8 2 11 12 7 9 -3 14 -2 10 3 -3 5 0 11 6 13 7 2 9 11 6 19 -4 10 -6
10 -6 1z"/>
<path d="M18315 759 c-4 -6 -5 -12 -2 -15 2 -3 7 2 10 11 7 17 1 20 -8 4z"/>
<path d="M18361 754 c0 -11 3 -14 6 -6 3 7 2 16 -1 19 -3 4 -6 -2 -5 -13z"/>
<path d="M740 745 c0 -7 -7 -18 -17 -23 -13 -8 -10 -9 13 -9 16 0 24 2 18 4
-7 2 -10 13 -7 23 3 11 3 20 -1 20 -3 0 -6 -7 -6 -15z"/>
<path d="M1060 745 c0 -7 -7 -18 -17 -23 -13 -8 -10 -9 13 -9 16 0 24 2 18 4
-7 2 -10 13 -7 23 3 11 3 20 -1 20 -3 0 -6 -7 -6 -15z"/>
<path d="M1380 745 c0 -7 -8 -19 -17 -25 -15 -9 -15 -11 -2 -7 9 3 22 0 28 -6
8 -8 11 -8 11 1 0 7 -4 12 -9 12 -5 0 -7 9 -4 20 3 11 3 20 -1 20 -3 0 -6 -7
-6 -15z"/>
<path d="M17380 745 c0 -7 -8 -19 -17 -25 -15 -9 -15 -11 -2 -7 9 3 22 0 28
-6 8 -8 11 -8 11 1 0 7 -4 12 -9 12 -5 0 -7 9 -4 20 3 11 3 20 -1 20 -3 0 -6
-7 -6 -15z"/>
<path d="M18340 745 c0 -7 -8 -19 -17 -25 -15 -9 -15 -11 -2 -7 9 3 22 0 28
-6 8 -8 11 -8 11 1 0 7 -4 12 -9 12 -5 0 -7 9 -4 20 3 11 3 20 -1 20 -3 0 -6
-7 -6 -15z"/>
<path d="M18243 728 c1 -15 5 -24 10 -21 5 3 13 0 17 -7 6 -9 9 -9 15 0 4 7
-1 13 -13 17 -12 3 -23 12 -25 22 -3 9 -4 4 -4 -11z"/>
<path d="M1220 710 c0 -7 -3 -10 -7 -7 -3 4 -12 -1 -18 -10 -18 -24 3 -46 24
-26 11 12 15 12 22 2 6 -10 10 -9 15 4 4 10 1 24 -5 30 -9 9 -11 8 -6 -3 4
-11 -1 -16 -16 -17 -17 -2 -18 1 -8 13 6 8 9 17 5 21 -3 3 -6 0 -6 -7z"/>
<path d="M1400 690 c-8 -5 -12 -11 -9 -14 2 -3 11 -1 19 4 8 5 12 11 9 14 -2
3 -11 1 -19 -4z"/>
<path d="M17251 684 c0 -11 3 -14 6 -6 3 7 2 16 -1 19 -3 4 -6 -2 -5 -13z"/>
<path d="M17443 685 c0 -7 8 -10 19 -7 10 2 18 6 18 7 0 1 -8 5 -18 7 -11 3
-19 0 -19 -7z"/>
<path d="M18403 685 c0 -7 8 -10 19 -7 10 2 18 6 18 7 0 1 -8 5 -18 7 -11 3
-19 0 -19 -7z"/>
<path d="M1335 680 c-4 -6 -11 -7 -17 -4 -6 4 -8 2 -4 -4 3 -6 2 -13 -3 -16
-11 -7 -2 -46 10 -46 5 0 9 -8 10 -17 0 -10 3 -13 5 -6 3 6 -2 23 -12 37 -15
24 -15 26 0 26 10 0 15 4 11 9 -3 6 3 14 12 20 10 6 13 11 6 11 -6 0 -15 -5
-18 -10z"/>
<path d="M17335 680 c-4 -6 -11 -7 -17 -4 -6 4 -8 2 -4 -4 3 -6 2 -13 -3 -16
-11 -7 -2 -46 10 -46 5 0 9 -8 10 -17 0 -10 3 -13 5 -6 3 6 -2 23 -12 37 -15
24 -15 26 0 26 10 0 15 4 11 9 -3 6 3 14 12 20 10 6 13 11 6 11 -6 0 -15 -5
-18 -10z"/>
<path d="M18295 680 c-4 -6 -11 -7 -17 -4 -6 4 -8 2 -4 -4 3 -6 2 -13 -3 -16
-11 -7 -2 -46 10 -46 5 0 9 -8 10 -17 0 -10 3 -13 5 -6 3 6 -2 23 -12 37 -15
24 -15 26 0 26 10 0 15 4 11 9 -3 6 3 14 12 20 10 6 13 11 6 11 -6 0 -15 -5
-18 -10z"/>
<path d="M18465 680 c-3 -5 -1 -10 4 -10 6 0 11 5 11 10 0 6 -2 10 -4 10 -3 0
-8 -4 -11 -10z"/>
<path d="M1355 651 c6 -20 5 -23 -11 -17 -10 4 -15 3 -10 -1 15 -16 52 -9 53
9 1 10 -2 20 -8 23 -5 3 -6 -2 -3 -12 5 -16 3 -15 -11 2 -17 20 -17 20 -10 -4z"/>
<path d="M1405 660 c-3 -6 1 -7 9 -4 18 7 21 14 7 14 -6 0 -13 -4 -16 -10z"/>
<path d="M17355 651 c6 -20 5 -23 -11 -17 -10 4 -15 3 -10 -1 15 -16 52 -9 53
9 1 10 -2 20 -8 23 -5 3 -6 -2 -3 -12 5 -16 3 -15 -11 2 -17 20 -17 20 -10 -4z"/>
<path d="M17405 660 c-3 -6 1 -7 9 -4 18 7 21 14 7 14 -6 0 -13 -4 -16 -10z"/>
<path d="M18315 651 c6 -20 5 -23 -11 -17 -10 4 -15 3 -10 -1 15 -16 52 -9 53
9 1 10 -2 20 -8 23 -5 3 -6 -2 -3 -12 5 -16 3 -15 -11 2 -17 20 -17 20 -10 -4z"/>
<path d="M18365 660 c-3 -6 1 -7 9 -4 18 7 21 14 7 14 -6 0 -13 -4 -16 -10z"/>
<path d="M1230 643 c9 -20 13 -21 30 -11 10 7 17 14 14 17 -2 3 -10 -1 -16 -7
-8 -8 -15 -7 -25 6 -13 15 -13 15 -3 -5z"/>
<path d="M17430 650 c-13 -9 -13 -10 0 -10 8 0 22 5 30 10 13 9 13 10 0 10 -8
0 -22 -5 -30 -10z"/>
<path d="M18390 650 c-13 -9 -13 -10 0 -10 8 0 22 5 30 10 13 9 13 10 0 10 -8
0 -22 -5 -30 -10z"/>
<path d="M17255 640 c-3 -6 1 -7 9 -4 18 7 21 14 7 14 -6 0 -13 -4 -16 -10z"/>
<path d="M17480 640 c0 -7 -3 -10 -7 -7 -3 4 -13 -2 -20 -13 -8 -11 -19 -18
-24 -15 -15 10 -10 -2 8 -16 9 -8 14 -9 10 -2 -4 6 5 20 20 31 16 11 25 24 20
28 -4 4 -7 1 -7 -6z"/>
<path d="M18440 640 c0 -7 -3 -10 -7 -7 -3 4 -13 -2 -20 -13 -8 -11 -19 -18
-24 -15 -15 10 -10 -2 8 -16 9 -8 14 -9 10 -2 -4 6 5 20 20 31 16 11 25 24 20
28 -4 4 -7 1 -7 -6z"/>
<path d="M1210 629 c0 -5 -5 -7 -12 -3 -7 4 -8 3 -4 -4 4 -7 1 -12 -6 -12 -8
0 -6 -5 5 -11 9 -5 17 -18 17 -27 0 -14 2 -15 10 -2 6 10 5 17 -6 23 -8 5 -12
13 -9 18 4 5 11 7 16 4 5 -3 6 1 3 9 -7 18 -14 21 -14 5z"/>
<path d="M1291 621 c0 -7 -7 -11 -14 -8 -8 3 -14 -3 -14 -14 -1 -10 3 -19 8
-19 6 0 7 5 4 10 -10 16 11 12 25 -5 10 -12 10 -15 -4 -15 -9 0 -16 -5 -16
-11 0 -5 5 -7 11 -3 6 3 15 0 20 -7 5 -8 9 -9 9 -3 0 6 11 10 25 9 14 -2 23 1
19 7 -3 5 -12 7 -19 4 -16 -6 -38 17 -27 29 4 5 2 5 -5 1 -7 -4 -13 2 -16 16
-2 13 -5 17 -6 9z"/>
<path d="M17291 621 c0 -7 -7 -11 -14 -8 -8 3 -14 -3 -14 -14 -1 -10 3 -19 8
-19 6 0 7 5 4 10 -10 16 11 12 25 -5 10 -12 10 -15 -4 -15 -9 0 -16 -5 -16
-11 0 -5 5 -7 11 -3 6 3 15 0 20 -7 5 -8 9 -9 9 -3 0 6 11 10 25 9 14 -2 23 1
19 7 -3 5 -12 7 -19 4 -16 -6 -38 17 -27 29 4 5 2 5 -5 1 -7 -4 -13 2 -16 16
-2 13 -5 17 -6 9z"/>
<path d="M18249 620 c-4 -8 0 -23 9 -32 14 -16 13 -18 -1 -18 -10 0 -17 -5
-17 -11 0 -5 5 -7 11 -3 6 3 15 0 20 -7 5 -8 9 -9 9 -3 0 6 11 10 25 9 14 -2
23 1 19 7 -3 5 -12 7 -19 4 -16 -6 -38 17 -27 29 4 5 2 5 -5 1 -7 -4 -13 2
-15 16 -3 17 -5 19 -9 8z"/>
<path d="M18446 612 c-3 -4 4 -9 15 -9 23 -2 25 3 4 10 -8 4 -16 3 -19 -1z"/>
<path d="M1383 604 c4 -4 2 -13 -4 -20 -6 -8 -7 -14 0 -18 6 -4 8 -13 5 -21
-4 -8 -10 -12 -15 -9 -13 8 -80 -27 -73 -38 4 -6 9 -6 14 2 4 7 10 8 12 4 3
-5 3 -3 1 5 -2 8 2 11 12 7 8 -3 15 -1 15 3 0 5 9 7 20 4 12 -3 20 0 20 6 0 7
5 9 12 5 7 -4 8 -3 4 4 -4 7 -2 12 3 12 6 0 11 4 11 10 0 5 -7 7 -15 4 -17 -7
-20 7 -4 23 7 7 5 12 -8 17 -9 4 -14 4 -10 0z"/>
<path d="M17383 604 c4 -4 2 -13 -4 -20 -6 -8 -7 -14 0 -18 6 -4 8 -13 5 -21
-4 -8 -10 -12 -15 -9 -13 8 -80 -27 -73 -38 4 -6 9 -6 14 2 4 7 10 8 12 4 3
-5 3 -3 1 5 -2 8 2 11 12 7 8 -3 15 -1 15 3 0 5 9 7 20 4 12 -3 20 0 20 6 0 7
5 9 12 5 7 -4 8 -3 4 4 -4 7 -3 12 2 12 6 0 13 7 16 16 5 14 4 15 -9 4 -19
-16 -32 -5 -16 14 9 11 8 15 -6 20 -10 4 -14 4 -10 0z"/>
<path d="M18343 604 c4 -4 2 -13 -4 -20 -6 -8 -7 -14 0 -18 6 -4 8 -13 5 -21
-4 -8 -10 -12 -15 -9 -13 8 -80 -27 -73 -38 4 -6 9 -6 14 2 4 7 10 8 12 4 3
-5 3 -3 1 5 -2 8 2 11 12 7 8 -3 15 -1 15 3 0 5 9 7 20 4 12 -3 20 0 20 6 0 7
5 9 12 5 7 -4 8 -3 4 4 -4 7 -3 12 2 12 6 0 13 7 16 16 5 14 4 15 -9 4 -19
-16 -32 -5 -16 14 9 11 8 15 -6 20 -10 4 -14 4 -10 0z"/>
<path d="M1170 579 c-10 -6 -11 -9 -2 -9 6 0 12 -5 12 -11 0 -5 -4 -8 -8 -5
-12 7 -52 -22 -52 -37 0 -8 3 -8 9 2 6 9 11 10 15 2 4 -6 4 -16 0 -23 -4 -7
-3 -8 5 -4 6 4 10 15 9 23 -2 9 3 18 11 21 8 3 11 0 7 -7 -10 -16 3 -14 20 4
9 8 11 15 5 15 -6 0 -8 6 -5 14 7 18 -8 27 -26 15z"/>
<path d="M18450 579 c-10 -6 -11 -9 -2 -9 6 0 12 -5 12 -11 0 -5 -4 -8 -8 -5
-12 7 -52 -22 -52 -37 0 -8 3 -8 9 2 6 9 11 10 15 2 4 -6 4 -16 0 -23 -4 -7
-3 -8 5 -4 6 4 10 15 9 23 -2 9 3 18 11 21 8 3 11 0 7 -7 -4 -6 -2 -11 3 -11
6 0 11 3 12 8 0 4 2 17 5 29 4 26 -6 35 -26 22z"/>
<path d="M1237 559 c-19 -11 -23 -29 -6 -29 5 0 7 5 3 12 -5 8 -2 9 9 5 9 -3
19 -2 22 3 8 14 -9 19 -28 9z"/>
<path d="M17250 554 c0 -8 5 -12 10 -9 6 4 8 11 5 16 -9 14 -15 11 -15 -7z"/>
<path d="M17462 544 c-12 -8 -22 -21 -22 -27 0 -8 3 -8 9 2 6 9 11 10 15 2 4
-6 4 -16 0 -23 -5 -7 -3 -8 5 -4 7 5 10 14 7 22 -3 7 2 17 11 22 9 5 11 12 6
15 -5 3 -19 -1 -31 -9z"/>
<path d="M490 534 c-7 -8 -10 -17 -6 -21 3 -3 6 -1 6 6 0 7 5 9 11 6 6 -4 8
-14 5 -22 -3 -8 -1 -11 4 -8 6 4 9 14 8 22 -2 9 3 18 11 21 8 3 11 0 7 -7 -10
-15 3 -14 19 2 11 12 8 14 -20 15 -18 1 -39 -5 -45 -14z"/>
<path d="M580 540 c0 -5 5 -10 11 -10 5 0 7 5 4 10 -3 6 -8 10 -11 10 -2 0 -4
-4 -4 -10z"/>
<path d="M740 539 c0 -5 -4 -7 -10 -4 -14 9 -81 -25 -74 -37 4 -6 9 -6 14 2 4
7 10 8 12 4 3 -5 3 -3 1 5 -2 8 2 11 12 7 8 -3 15 -1 15 3 0 5 9 7 20 4 12 -3
20 0 20 6 0 7 5 9 12 5 7 -4 8 -3 4 4 -9 15 -26 16 -26 1z"/>
<path d="M810 534 c-7 -8 -10 -17 -6 -21 3 -3 6 -1 6 6 0 7 5 9 11 6 6 -4 8
-14 5 -22 -3 -8 -1 -11 4 -8 6 4 9 14 8 22 -2 9 3 18 11 21 8 3 11 0 7 -7 -10
-15 3 -14 19 2 11 12 8 14 -20 15 -18 1 -39 -5 -45 -14z"/>
<path d="M900 540 c0 -5 5 -10 11 -10 5 0 7 5 4 10 -3 6 -8 10 -11 10 -2 0 -4
-4 -4 -10z"/>
<path d="M1060 539 c0 -5 -4 -7 -10 -4 -14 9 -81 -25 -74 -37 4 -6 9 -6 14 2
4 7 10 8 12 4 3 -5 3 -3 1 5 -2 8 2 11 12 7 8 -3 15 -1 15 3 0 5 9 7 20 4 12
-3 20 0 20 6 0 7 5 9 12 5 7 -4 8 -3 4 4 -9 15 -26 16 -26 1z"/>
<path d="M608 518 c-17 -14 -23 -16 -30 -6 -5 9 -8 8 -8 -5 0 -10 -4 -15 -10
-12 -5 3 -10 1 -10 -4 0 -6 -3 -10 -7 -10 -21 3 -33 -2 -33 -16 0 -9 6 -12 15
-9 11 5 13 2 9 -10 -3 -9 -11 -13 -17 -9 -6 4 -7 1 -2 -7 5 -9 2 -11 -11 -6
-22 6 -59 -18 -50 -33 4 -5 -2 -14 -11 -20 -10 -5 -15 -12 -12 -16 9 -8 40 25
34 35 -3 5 -1 11 5 15 5 3 10 1 10 -5 0 -6 4 -9 9 -6 5 4 11 3 14 -1 2 -5 2
-2 0 6 -2 8 2 11 12 7 9 -3 13 -2 10 4 -3 6 -1 10 4 10 6 0 11 8 11 18 0 14 2
15 10 2 6 -9 10 -10 10 -3 0 6 -5 15 -10 18 -12 7 -4 25 11 25 6 0 8 -4 4 -9
-3 -5 0 -13 6 -17 8 -4 9 -3 5 4 -4 7 -1 12 6 12 10 0 9 3 -1 9 -12 8 -9 11
11 16 15 4 29 13 32 21 3 7 12 11 21 8 8 -3 15 -2 15 3 0 16 -29 11 -52 -9z"/>
<path d="M928 518 c-17 -14 -23 -16 -30 -6 -5 9 -8 8 -8 -5 0 -10 -4 -15 -10
-12 -5 3 -10 1 -10 -4 0 -6 -3 -10 -7 -10 -21 3 -33 -2 -33 -16 0 -9 6 -12 15
-9 11 5 13 2 9 -10 -3 -9 -11 -13 -17 -9 -6 4 -7 1 -2 -7 5 -9 2 -11 -11 -6
-22 6 -59 -18 -50 -33 4 -5 -2 -14 -11 -20 -10 -5 -15 -12 -12 -16 9 -8 40 25
34 35 -3 5 -1 11 5 15 5 3 10 1 10 -5 0 -6 4 -9 9 -6 5 4 11 3 14 -1 2 -5 2
-2 0 6 -2 8 2 11 12 7 9 -3 13 -2 10 4 -3 6 -1 10 4 10 6 0 11 8 11 18 0 14 2
15 10 2 6 -9 10 -10 10 -3 0 6 -5 15 -10 18 -12 7 -4 25 11 25 6 0 8 -4 4 -9
-3 -5 0 -13 6 -17 8 -4 9 -3 5 4 -4 7 -1 12 6 12 10 0 9 3 -1 9 -12 8 -9 11
11 16 15 4 29 13 32 21 3 7 12 11 21 8 8 -3 15 -2 15 3 0 16 -29 11 -52 -9z"/>
<path d="M1248 518 c-17 -14 -23 -16 -30 -6 -5 9 -8 8 -8 -5 0 -10 -4 -15 -10
-12 -5 3 -10 1 -10 -4 0 -6 -3 -10 -7 -10 -21 3 -33 -2 -33 -16 0 -9 6 -12 15
-9 11 5 13 2 9 -10 -3 -9 -11 -13 -17 -9 -6 4 -7 1 -2 -7 5 -9 2 -11 -11 -6
-22 6 -59 -18 -50 -33 4 -5 -2 -14 -11 -20 -10 -5 -15 -12 -12 -16 9 -8 40 25
34 35 -3 5 -1 11 5 15 5 3 10 1 10 -5 0 -6 4 -9 9 -6 5 4 11 3 14 -1 2 -5 2
-2 0 6 -2 8 2 11 12 7 9 -3 13 -2 10 4 -3 6 -1 10 4 10 6 0 11 8 11 18 0 14 2
15 10 2 6 -9 10 -10 10 -3 0 6 -5 15 -10 18 -12 7 -4 25 11 25 6 0 8 -4 4 -9
-3 -5 0 -13 6 -17 8 -4 9 -3 5 4 -4 7 -1 12 6 12 10 0 9 3 -1 9 -12 8 -9 11
11 16 15 4 29 13 32 21 3 7 12 11 21 8 8 -3 15 -2 15 3 0 16 -29 11 -52 -9z"/>
<path d="M17263 533 c-7 -3 -13 -12 -13 -21 1 -16 1 -16 11 0 5 10 16 15 24
12 8 -4 15 -2 15 3 0 10 -17 12 -37 6z"/>
<path d="M18245 530 c-3 -5 -1 -10 4 -10 6 0 11 5 11 10 0 6 -2 10 -4 10 -3 0
-8 -4 -11 -10z"/>
<path d="M420 500 c0 -5 5 -10 11 -10 5 0 7 5 4 10 -3 6 -8 10 -11 10 -2 0 -4
-4 -4 -10z"/>
<path d="M630 496 c0 -9 4 -16 9 -16 5 0 8 -8 6 -17 -1 -10 0 -12 2 -4 4 11 6
12 13 1 7 -11 12 -11 23 -1 9 7 16 8 19 2 2 -5 14 -3 28 5 l25 14 -28 -6 c-23
-5 -26 -4 -21 12 6 15 3 15 -13 -4 l-21 -23 -21 27 c-15 19 -21 22 -21 10z"/>
<path d="M726 502 c-2 -4 4 -9 15 -9 11 -1 17 2 14 8 -7 11 -22 12 -29 1z"/>
<path d="M950 496 c0 -9 4 -16 9 -16 5 0 8 -8 6 -17 -1 -10 0 -12 2 -4 4 11 6
12 13 1 7 -11 12 -11 23 -1 9 7 16 8 19 2 2 -5 14 -3 28 5 l25 14 -28 -6 c-23
-5 -26 -4 -21 12 6 15 3 15 -13 -4 l-21 -23 -21 27 c-15 19 -21 22 -21 10z"/>
<path d="M1046 502 c-2 -4 4 -9 15 -9 11 -1 17 2 14 8 -7 11 -22 12 -29 1z"/>
<path d="M1270 496 c0 -9 4 -16 9 -16 5 0 8 -8 6 -17 -1 -10 0 -12 2 -4 4 11
6 12 13 1 7 -11 12 -11 23 -1 9 7 16 8 19 2 2 -5 14 -3 28 5 l25 14 -28 -6
c-23 -5 -26 -4 -21 12 6 15 3 15 -13 -4 l-21 -23 -21 27 c-15 19 -21 22 -21
10z"/>
<path d="M1366 502 c-2 -4 4 -9 15 -9 11 -1 17 2 14 8 -7 11 -22 12 -29 1z"/>
<path d="M17270 496 c0 -9 4 -16 9 -16 5 0 8 -8 6 -17 -1 -10 0 -12 2 -4 4 11
6 12 13 1 7 -11 12 -11 23 -1 9 7 16 8 19 2 2 -5 14 -3 28 5 l25 14 -28 -6
c-23 -5 -26 -4 -21 12 6 15 3 15 -13 -4 l-21 -23 -21 27 c-15 19 -21 22 -21
10z"/>
<path d="M17366 502 c-2 -4 4 -9 15 -9 11 -1 17 2 14 8 -7 11 -22 12 -29 1z"/>
<path d="M18326 502 c-2 -4 4 -9 15 -9 11 -1 17 2 14 8 -7 11 -22 12 -29 1z"/>
<path d="M480 489 c0 -5 -4 -8 -9 -4 -5 3 -12 1 -16 -5 -3 -5 1 -10 9 -10 10
0 13 -6 9 -17 -6 -15 -5 -16 9 -3 9 8 12 16 8 18 -5 2 -6 10 -3 18 3 8 2 14
-1 14 -3 0 -6 -5 -6 -11z"/>
<path d="M800 489 c0 -5 -4 -8 -9 -4 -5 3 -12 1 -16 -5 -3 -5 1 -10 9 -10 10
0 13 -6 9 -17 -6 -15 -5 -16 9 -3 9 8 12 16 8 18 -5 2 -6 10 -3 18 3 8 2 14
-1 14 -3 0 -6 -5 -6 -11z"/>
<path d="M1120 489 c0 -5 -4 -8 -9 -4 -5 3 -12 1 -16 -5 -3 -5 1 -10 9 -10 10
0 13 -6 9 -17 -6 -15 -5 -16 9 -3 9 8 12 16 8 18 -5 2 -6 10 -3 18 3 8 2 14
-1 14 -3 0 -6 -5 -6 -11z"/>
<path d="M17440 489 c0 -5 -4 -8 -9 -4 -5 3 -12 1 -16 -5 -3 -5 1 -10 9 -10
10 0 13 -6 9 -17 -6 -15 -5 -16 9 -3 9 8 12 16 8 18 -5 2 -6 10 -3 18 3 8 2
14 -1 14 -3 0 -6 -5 -6 -11z"/>
<path d="M18290 480 c-12 -17 -16 -18 -30 -5 -14 13 -16 11 -17 -13 0 -17 1
-20 4 -8 4 14 7 16 13 6 7 -11 12 -11 23 -1 9 7 16 8 19 2 2 -5 14 -3 28 5
l25 14 -28 -6 c-22 -5 -26 -3 -21 10 8 22 1 20 -16 -4z"/>
<path d="M18400 489 c0 -5 -4 -8 -9 -4 -5 3 -12 1 -16 -5 -3 -5 1 -10 9 -10
10 0 13 -6 9 -17 -6 -15 -5 -16 9 -3 9 8 12 16 8 18 -5 2 -6 10 -3 18 3 8 2
14 -1 14 -3 0 -6 -5 -6 -11z"/>
<path d="M18470 492 c0 -7 -3 -11 -7 -11 -21 3 -33 -2 -33 -16 0 -9 6 -12 15
-9 11 5 13 2 9 -10 -3 -9 -11 -13 -17 -9 -6 4 -7 1 -2 -7 5 -9 2 -11 -11 -6
-22 6 -59 -18 -50 -33 4 -5 -2 -14 -11 -20 -10 -5 -15 -12 -12 -16 9 -8 40 25
34 35 -3 5 -1 11 5 15 5 3 10 1 10 -5 0 -6 4 -9 9 -6 5 4 11 3 14 -1 2 -5 2
-2 0 6 -2 8 2 11 12 7 9 -3 13 -2 10 4 -3 6 -1 10 4 10 6 0 11 7 11 16 0 9 5
12 13 8 9 -6 9 -5 0 7 -10 12 -10 18 -1 27 6 6 9 15 5 19 -4 3 -7 1 -7 -5z"/>
<path d="M17483 483 c-7 -2 -13 -11 -13 -19 0 -7 6 -11 13 -8 8 3 14 11 14 19
0 8 -1 15 -1 14 -1 0 -7 -3 -13 -6z"/>
<path d="M405 470 c-3 -6 1 -7 9 -4 18 7 21 14 7 14 -6 0 -13 -4 -16 -10z"/>
<path d="M608 442 c3 -10 1 -13 -6 -8 -7 4 -12 2 -12 -3 0 -6 5 -11 11 -11 5
0 7 -5 3 -12 -4 -6 -3 -8 4 -4 6 3 13 -3 17 -14 6 -17 9 -19 22 -9 12 10 16
10 23 0 5 -10 9 -10 15 -1 4 7 -1 13 -14 17 -12 3 -21 12 -21 19 0 8 -4 14
-10 14 -5 0 -10 6 -10 13 0 8 -6 14 -14 14 -8 0 -12 -6 -8 -15z m27 -22 c3 -5
2 -10 -4 -10 -5 0 -13 5 -16 10 -3 6 -2 10 4 10 5 0 13 -4 16 -10z"/>
<path d="M928 442 c3 -10 1 -13 -6 -8 -7 4 -12 2 -12 -3 0 -6 5 -11 11 -11 5
0 7 -5 3 -12 -4 -6 -3 -8 4 -4 6 3 13 -3 17 -14 6 -17 9 -19 22 -9 12 10 16
10 23 0 5 -10 9 -10 15 -1 4 7 -1 13 -14 17 -12 3 -21 12 -21 19 0 8 -4 14
-10 14 -5 0 -10 6 -10 13 0 8 -6 14 -14 14 -8 0 -12 -6 -8 -15z m27 -22 c3 -5
2 -10 -4 -10 -5 0 -13 5 -16 10 -3 6 -2 10 4 10 5 0 13 -4 16 -10z"/>
<path d="M1248 442 c3 -10 1 -13 -6 -8 -7 4 -12 2 -12 -3 0 -6 5 -11 11 -11 5
0 7 -6 3 -12 -4 -7 -3 -9 1 -5 5 4 14 -1 19 -11 10 -16 14 -17 36 -5 18 9 20
13 8 13 -10 0 -18 7 -18 15 0 8 -4 15 -10 15 -5 0 -10 6 -10 13 0 8 -6 14 -14
14 -8 0 -12 -6 -8 -15z m27 -22 c3 -5 2 -10 -4 -10 -5 0 -13 5 -16 10 -3 6 -2
10 4 10 5 0 13 -4 16 -10z"/>
<path d="M17256 451 c-6 -9 -3 -17 9 -23 12 -7 14 -13 6 -17 -6 -4 -9 -15 -5
-25 5 -13 9 -14 21 -4 11 9 16 9 23 -1 5 -10 9 -10 15 -1 4 7 -1 13 -14 17
-12 3 -21 12 -21 19 0 8 -4 14 -9 14 -5 0 -11 8 -13 18 -3 14 -5 14 -12 3z"/>
<path d="M441 434 c0 -11 3 -14 6 -6 3 7 2 16 -1 19 -3 4 -6 -2 -5 -13z"/>
<path d="M715 439 c-4 -6 -5 -12 -2 -15 2 -3 7 2 10 11 7 17 1 20 -8 4z"/>
<path d="M761 434 c0 -11 3 -14 6 -6 3 7 2 16 -1 19 -3 4 -6 -2 -5 -13z"/>
<path d="M1035 439 c-4 -6 -5 -12 -2 -15 2 -3 7 2 10 11 7 17 1 20 -8 4z"/>
<path d="M1081 434 c0 -11 3 -14 6 -6 3 7 2 16 -1 19 -3 4 -6 -2 -5 -13z"/>
<path d="M17355 439 c-4 -6 -5 -12 -2 -15 2 -3 7 2 10 11 7 17 1 20 -8 4z"/>
<path d="M17401 434 c0 -11 3 -14 6 -6 3 7 2 16 -1 19 -3 4 -6 -2 -5 -13z"/>
<path d="M17491 442 c-1 -7 -6 -10 -13 -6 -7 5 -8 3 -3 -6 5 -9 2 -11 -11 -6
-22 6 -59 -18 -50 -33 4 -5 -2 -14 -11 -20 -10 -5 -15 -12 -12 -16 9 -8 40 25
34 35 -3 5 -1 11 5 15 5 3 10 1 10 -5 0 -6 4 -9 9 -6 5 4 11 3 14 -1 2 -5 2
-2 0 6 -2 8 2 11 12 7 9 -3 14 -2 10 3 -3 5 0 11 6 13 7 2 9 11 6 19 -4 10 -6
10 -6 1z"/>
<path d="M18315 439 c-4 -6 -5 -12 -2 -15 2 -3 7 2 10 11 7 17 1 20 -8 4z"/>
<path d="M18361 434 c0 -11 3 -14 6 -6 3 7 2 16 -1 19 -3 4 -6 -2 -5 -13z"/>
<path d="M413 414 c-7 -15 -10 -24 -6 -20 3 3 12 1 20 -5 9 -9 13 -8 13 0 0 6
-4 11 -9 11 -5 0 -7 9 -4 20 7 28 0 25 -14 -6z"/>
<path d="M740 425 c0 -7 -8 -19 -17 -25 -15 -9 -15 -11 -2 -7 9 3 22 0 28 -6
8 -8 11 -8 11 1 0 7 -4 12 -9 12 -5 0 -7 9 -4 20 3 11 3 20 -1 20 -3 0 -6 -7
-6 -15z"/>
<path d="M1060 425 c0 -7 -8 -19 -17 -25 -15 -9 -15 -11 -2 -7 9 3 22 0 28 -6
8 -8 11 -8 11 1 0 7 -4 12 -9 12 -5 0 -7 9 -4 20 3 11 3 20 -1 20 -3 0 -6 -7
-6 -15z"/>
<path d="M17380 425 c0 -7 -8 -19 -17 -25 -15 -9 -15 -11 -2 -7 9 3 22 0 28
-6 8 -8 11 -8 11 1 0 7 -4 12 -9 12 -5 0 -7 9 -4 20 3 11 3 20 -1 20 -3 0 -6
-7 -6 -15z"/>
<path d="M18340 425 c0 -7 -8 -19 -17 -25 -15 -9 -15 -11 -2 -7 9 3 22 0 28
-6 8 -8 11 -8 11 1 0 7 -4 12 -9 12 -5 0 -7 9 -4 20 3 11 3 20 -1 20 -3 0 -6
-7 -6 -15z"/>
<path d="M580 390 c0 -7 -3 -10 -7 -7 -3 4 -12 -1 -18 -10 -18 -24 3 -46 24
-26 11 12 15 12 22 2 6 -10 10 -9 15 4 4 10 1 24 -5 30 -9 9 -11 8 -6 -3 4
-11 -1 -16 -16 -17 -17 -2 -18 1 -8 13 6 8 9 17 5 21 -3 3 -6 0 -6 -7z"/>
<path d="M900 390 c0 -7 -3 -10 -7 -7 -3 4 -12 -1 -18 -10 -18 -24 3 -46 24
-26 11 12 15 12 22 2 6 -10 10 -9 15 4 4 10 1 24 -5 30 -9 9 -11 8 -6 -3 4
-11 -1 -16 -16 -17 -17 -2 -18 1 -8 13 6 8 9 17 5 21 -3 3 -6 0 -6 -7z"/>
<path d="M1220 390 c0 -7 -3 -10 -7 -7 -3 4 -12 -1 -18 -10 -18 -24 3 -46 24
-26 11 12 15 12 22 2 6 -10 10 -9 15 4 4 10 1 24 -5 30 -9 9 -11 8 -6 -3 4
-11 -1 -16 -16 -17 -17 -2 -18 1 -8 13 6 8 9 17 5 21 -3 3 -6 0 -6 -7z"/>
<path d="M18262 386 c7 -8 16 -12 21 -9 11 7 -2 23 -19 23 -12 0 -12 -2 -2
-14z"/>
<path d="M483 365 c0 -7 8 -10 19 -7 10 2 18 6 18 7 0 1 -8 5 -18 7 -11 3 -19
0 -19 -7z"/>
<path d="M803 365 c0 -7 8 -10 19 -7 10 2 18 6 18 7 0 1 -8 5 -18 7 -11 3 -19
0 -19 -7z"/>
<path d="M1123 365 c0 -7 8 -10 19 -7 10 2 18 6 18 7 0 1 -8 5 -18 7 -11 3
-19 0 -19 -7z"/>
<path d="M17443 365 c0 -7 6 -11 14 -8 7 3 13 6 13 8 0 2 -6 5 -13 8 -8 3 -14
-1 -14 -8z"/>
<path d="M18403 365 c0 -7 8 -10 19 -7 10 2 18 6 18 7 0 1 -8 5 -18 7 -11 3
-19 0 -19 -7z"/>
<path d="M695 360 c-4 -6 -12 -7 -18 -4 -7 4 -9 4 -5 -1 4 -4 3 -14 -3 -21 -7
-8 -6 -14 2 -20 8 -4 9 -3 5 4 -4 7 -1 12 9 12 9 0 14 4 10 9 -3 6 3 14 12 20
10 6 13 11 6 11 -6 0 -15 -5 -18 -10z"/>
<path d="M1015 360 c-4 -6 -12 -7 -18 -4 -7 4 -9 4 -5 -1 4 -4 3 -14 -3 -21
-7 -8 -6 -14 2 -20 8 -4 9 -3 5 4 -4 7 -1 12 9 12 9 0 14 4 10 9 -3 6 3 14 12
20 10 6 13 11 6 11 -6 0 -15 -5 -18 -10z"/>
<path d="M17335 360 c-4 -6 -10 -8 -14 -6 -4 3 -8 -1 -8 -9 0 -8 7 -15 14 -15
8 0 12 4 8 9 -3 6 3 14 12 20 10 6 13 11 6 11 -6 0 -15 -5 -18 -10z"/>
<path d="M18295 360 c-3 -6 1 -7 9 -4 18 7 21 14 7 14 -6 0 -13 -4 -16 -10z"/>
<path d="M445 340 c-3 -6 1 -7 9 -4 18 7 21 14 7 14 -6 0 -13 -4 -16 -10z"/>
<path d="M710 344 c0 -5 5 -16 10 -24 7 -12 12 -12 22 -2 9 9 9 15 -1 25 -10
10 -11 8 -6 -8 7 -20 6 -20 -9 -1 -9 11 -16 16 -16 10z"/>
<path d="M765 340 c-3 -6 1 -7 9 -4 18 7 21 14 7 14 -6 0 -13 -4 -16 -10z"/>
<path d="M1030 344 c0 -5 5 -16 10 -24 7 -12 12 -12 22 -2 9 9 9 15 -1 25 -10
10 -11 8 -6 -8 7 -20 6 -20 -9 -1 -9 11 -16 16 -16 10z"/>
<path d="M1085 340 c-3 -6 1 -7 9 -4 18 7 21 14 7 14 -6 0 -13 -4 -16 -10z"/>
<path d="M17350 344 c0 -5 5 -16 10 -24 7 -12 12 -12 22 -2 9 9 9 15 -1 25
-10 10 -11 8 -6 -8 7 -20 6 -20 -9 -1 -9 11 -16 16 -16 10z"/>
<path d="M17405 340 c-3 -6 1 -7 9 -4 18 7 21 14 7 14 -6 0 -13 -4 -16 -10z"/>
<path d="M470 330 c-13 -9 -13 -10 0 -10 8 0 22 5 30 10 13 9 13 10 0 10 -8 0
-22 -5 -30 -10z"/>
<path d="M586 327 c3 -10 9 -15 12 -12 3 3 0 11 -7 18 -10 9 -11 8 -5 -6z"/>
<path d="M790 330 c-13 -9 -13 -10 0 -10 8 0 22 5 30 10 13 9 13 10 0 10 -8 0
-22 -5 -30 -10z"/>
<path d="M906 327 c3 -10 9 -15 12 -12 3 3 0 11 -7 18 -10 9 -11 8 -5 -6z"/>
<path d="M1110 330 c-13 -9 -13 -10 0 -10 8 0 22 5 30 10 13 9 13 10 0 10 -8
0 -22 -5 -30 -10z"/>
<path d="M615 320 c-3 -6 1 -7 9 -4 18 7 21 14 7 14 -6 0 -13 -4 -16 -10z"/>
<path d="M935 320 c-3 -6 1 -7 9 -4 18 7 21 14 7 14 -6 0 -13 -4 -16 -10z"/>
</g>
</svg>
